<?xml version="1.0" standalone="no"?>
<!DOCTYPE svg PUBLIC "-//W3C//DTD SVG 1.1//EN" "http://www.w3.org/Graphics/SVG/1.1/DTD/svg11.dtd" >
<svg xmlns="http://www.w3.org/2000/svg">
<metadata></metadata>
<defs>
<font id="PhilosopherRegular" horiz-adv-x="1085" >
<font-face units-per-em="2048" ascent="1638" descent="-410" />
<missing-glyph horiz-adv-x="512" />
<glyph horiz-adv-x="0" />
<glyph horiz-adv-x="2048" />
<glyph unicode=" "  horiz-adv-x="512" />
<glyph unicode="&#x09;" horiz-adv-x="512" />
<glyph unicode="&#xa0;" horiz-adv-x="512" />
<glyph unicode="!" horiz-adv-x="479" d="M129 84q0 45 33 77t78 32t77.5 -32t32.5 -77q0 -47 -32.5 -80t-77.5 -33t-78 33t-33 80zM143 1352h193l-37 -1035h-119z" />
<glyph unicode="&#x22;" horiz-adv-x="749" d="M109 1352h204l-61 -553h-82zM436 1352h205l-61 -553h-82z" />
<glyph unicode="#" horiz-adv-x="1368" d="M63 358v123h295l74 369h-246v123h273l86 409h133l-86 -409h297l86 409h133l-86 -409h281v-123h-308l-75 -369h260v-123h-287l-72 -358h-133l72 358h-297l-72 -358h-133l72 358h-267zM489 481h299l74 369h-297z" />
<glyph unicode="$" horiz-adv-x="1077" d="M100 215v219h37q31 -186 117 -277t229 -108v553l-143 86q-131 78 -185.5 158t-54.5 194q0 78 28 141.5t78 108.5t120.5 70.5t156.5 28.5v116h82v-121q70 -6 136.5 -25.5t119.5 -50t86 -72.5t33 -93v-219h-37q-31 186 -113.5 274t-224.5 105v-519l174 -102q66 -39 114 -75 t79 -75.5t46 -85t15 -102.5q0 -174 -113.5 -276.5t-314.5 -102.5v-129h-82v133q-74 8 -142.5 28.5t-122.5 51.5t-86 73t-32 93zM260 1100q0 -45 14.5 -80t42 -65.5t69.5 -59.5t97 -61v473q-43 -2 -84 -17.5t-71.5 -43t-49 -64.5t-18.5 -82zM565 47q49 2 95.5 16.5t81 41 t55 64.5t20.5 87q0 90 -56 153.5t-169 129.5l-27 14v-506z" />
<glyph unicode="%" horiz-adv-x="1380" d="M66 1085q0 131 78.5 204t217.5 73t218 -73t79 -204t-78.5 -203.5t-218.5 -72.5q-139 0 -217.5 72.5t-78.5 203.5zM147 0l932 1352h154l-932 -1352h-154zM188 1085q0 -205 174 -204q175 -1 175 204t-175 205q-174 0 -174 -205zM721 266q0 131 79 204t218 73t218 -73 t79 -204t-79 -203.5t-218 -72.5t-218 72.5t-79 203.5zM844 266q0 -205 174 -205t174 205t-174 205t-174 -205z" />
<glyph unicode="&#x26;" horiz-adv-x="1261" d="M86 287q0 63 24.5 115.5t65.5 98.5t94.5 86t108.5 81q-59 51 -107 114q-41 53 -72.5 128t-31.5 163q0 147 99.5 233.5t269.5 86.5q162 0 249.5 -82t87.5 -205q0 -72 -24.5 -129t-65.5 -105.5t-95 -91.5t-114 -84l412 -450q43 47 77 92t58 82q27 43 49 82l41 -31 q-18 -41 -45 -86q-23 -39 -57.5 -88t-79.5 -98l182 -199h-225l-82 88q-74 -55 -170 -92t-219 -37q-109 0 -188.5 25.5t-134 69.5t-81 103.5t-26.5 129.5zM281 307q0 -276 274 -276q94 0 170 28.5t137 75.5l-422 461q-70 -59 -114.5 -128t-44.5 -161zM362 1073 q0 -61 22 -114.5t48.5 -94.5t50 -66.5t29.5 -29.5q78 66 133 140.5t55 176.5q0 66 -15 111t-39.5 72.5t-53.5 40t-55 12.5q-31 0 -62 -12.5t-56.5 -42t-41 -76.5t-15.5 -117z" />
<glyph unicode="'" horiz-adv-x="421" d="M109 1352h204l-61 -553h-82z" />
<glyph unicode="(" horiz-adv-x="632" d="M70 492q0 154 33.5 282.5t99 239t161 209t218.5 190.5l20 -31q-100 -88 -166.5 -192.5t-106.5 -218t-57.5 -235.5t-17.5 -244q0 -123 17.5 -245t57.5 -235.5t106.5 -218t166.5 -192.5l-20 -31q-123 92 -218.5 190.5t-161 209t-99 239.5t-33.5 283z" />
<glyph unicode=")" horiz-adv-x="632" d="M31 -399q100 88 166.5 192.5t106.5 218t57.5 235.5t17.5 245t-17.5 244.5t-57.5 235t-106.5 218t-166.5 192.5l20 31q123 -92 218.5 -190.5t161 -209t99 -239t33.5 -282.5t-33.5 -283t-99 -239.5t-161 -209t-218.5 -190.5z" />
<glyph unicode="*" horiz-adv-x="868" d="M96 911l297 103l-297 102l82 144l236 -216l-62 308h164l-61 -308l235 216l82 -144l-297 -102l297 -103l-82 -143l-235 215l61 -307h-164l62 307l-236 -215z" />
<glyph unicode="+" d="M72 614v123h409v410h123v-410h410v-123h-410v-409h-123v409h-409z" />
<glyph unicode="," horiz-adv-x="485" d="M115 82q0 53 34.5 88t88.5 35q61 0 97 -37t36 -107q0 -131 -58.5 -224t-167.5 -154l-20 30q78 53 121 119t43 158l-62 -21q-47 0 -79.5 33t-32.5 80z" />
<glyph unicode="-" horiz-adv-x="792" d="M135 471v143h522v-143h-522z" />
<glyph unicode="." horiz-adv-x="450" d="M115 84q0 45 32.5 78t77.5 33q47 0 79 -33t32 -78q0 -47 -33 -80t-78 -33t-77.5 33t-32.5 80z" />
<glyph unicode="/" horiz-adv-x="901" d="M47 0l658 1352h149l-657 -1352h-150z" />
<glyph unicode="0" horiz-adv-x="1196" d="M106 676q0 162 27 294t85 226t151.5 145.5t228.5 51.5t228.5 -51.5t151.5 -145.5t85 -226t27 -294t-27 -294t-85 -226.5t-151.5 -145.5t-228.5 -51t-228.5 51t-151.5 145.5t-85 226.5t-27 294zM311 676q0 -162 13.5 -281t46 -197.5t88 -117.5t139.5 -39t139.5 39 t88 117.5t46 197.5t13.5 281t-13.5 280.5t-46 197.5t-88 118t-139.5 39t-139.5 -39t-88 -118t-46 -197.5t-13.5 -280.5z" />
<glyph unicode="1" horiz-adv-x="624" d="M29 1065l317 287h103v-1352h-185v1147l-198 -129z" />
<glyph unicode="2" d="M84 0v102q162 158 286 275t208 218t128 197.5t44 211.5q0 76 -21.5 134t-58.5 96t-85 57.5t-102 19.5q-123 0 -215 -89t-123 -259h-41q0 78 6.5 148.5t43.5 117.5q55 68 161.5 116t229.5 48q61 0 133 -14.5t133 -57.5t102 -119t41 -198q0 -131 -60 -241t-160.5 -216.5 t-232.5 -218t-274 -246.5h461q123 0 189.5 53t66.5 162h41v-133q0 -31 -7 -60.5t-26.5 -52t-53.5 -37t-87 -14.5h-727z" />
<glyph unicode="3" d="M82 178l33 37q78 -86 170 -130t209 -44q61 0 116.5 19.5t98.5 61.5t67.5 105.5t24.5 151.5q0 80 -24.5 140.5t-62.5 99t-86 58t-93 19.5q-47 0 -78 -2t-56.5 -6t-51 -9t-60.5 -13l-53 86l555 518h-379q-123 0 -189.5 -53.5t-66.5 -161.5h-41v133q0 31 7 60.5t26.5 52 t53.5 37t87 14.5h651v-82l-549 -512q53 14 109.5 17t74.5 3q45 0 118 -15t142.5 -58t120 -121t50.5 -205q0 -135 -50.5 -217t-123 -127t-151.5 -60.5t-136 -15.5q-154 0 -265.5 59.5t-197.5 159.5z" />
<glyph unicode="4" horiz-adv-x="1118" d="M37 348v82l676 922h164v-922h184v-82h-184v-348h-185v348h-655zM160 430h532v725z" />
<glyph unicode="5" d="M86 174l39 35q78 -86 168 -127t203 -41q61 0 116.5 19.5t98.5 61.5t67.5 105.5t24.5 151.5q0 162 -87 239.5t-241 77.5q-47 0 -92 -3t-82 -7l-82 -10l-82 82l21 594h768v-82h-600l-19 -502q31 2 66 4q29 2 66.5 4t76.5 2q76 0 163 -16.5t159.5 -60.5t121 -121.5 t48.5 -200.5q0 -131 -51.5 -213t-125 -128t-156.5 -62.5t-149 -16.5q-154 0 -255 57.5t-185 157.5z" />
<glyph unicode="6" horiz-adv-x="1099" d="M106 676q0 356 125 536.5t387 180.5q100 0 178 -19.5t140 -42.5l-10 -41q-47 8 -118 14.5t-149 6.5q-92 0 -159.5 -37t-111.5 -105.5t-65.5 -165t-21.5 -215.5q53 39 126 66t181 27q106 0 184 -33t128.5 -93.5t74 -145.5t23.5 -189q0 -88 -26.5 -171t-82 -147.5 t-138.5 -103.5t-193 -39q-246 0 -359 181.5t-113 535.5zM301 696q0 -176 20.5 -301t56.5 -203.5t87 -114.5t113 -36q57 0 103 31.5t78 85t48 121t16 141.5q0 176 -65.5 277.5t-210.5 101.5q-78 0 -135.5 -28t-110.5 -75z" />
<glyph unicode="7" horiz-adv-x="970" d="M53 1055v133q0 31 7.5 60.5t26.5 52t53 37t87 14.5h717v-82l-512 -1270h-184l512 1270h-410q-123 0 -189.5 -53.5t-66.5 -161.5h-41z" />
<glyph unicode="8" horiz-adv-x="1134" d="M96 307q0 76 28 135.5t74 104.5t105 78.5t121 60.5q-53 31 -103.5 65.5t-89 76.5t-61.5 95.5t-23 120.5q0 100 34 167t91.5 107t134 57.5t160.5 17.5t161 -16.5t134.5 -55.5t91 -101.5t33.5 -154.5q0 -61 -21.5 -112.5t-57.5 -93.5t-82 -74.5t-95 -57.5q57 -35 112.5 -72 t98.5 -84t69.5 -106t26.5 -137q0 -100 -37.5 -170t-102 -114t-149.5 -64.5t-182 -20.5q-96 0 -181 19.5t-149.5 62.5t-102.5 108.5t-38 157.5zM291 307q0 -70 22.5 -120t61.5 -82.5t89 -48t103 -15.5t103.5 15.5t88.5 46t61.5 77t23.5 107.5q0 66 -26.5 117t-72 94 t-104.5 77.5t-125 69.5q-45 -23 -86 -50.5t-71.5 -67.5t-49 -93t-18.5 -127zM342 1085q0 -49 24.5 -94t66.5 -83t95.5 -70.5t110.5 -59.5q61 45 107.5 108.5t46.5 178.5q0 74 -20.5 121t-53.5 74.5t-73 39t-79 11.5t-78.5 -10.5t-72.5 -37t-53.5 -69.5t-20.5 -109z" />
<glyph unicode="9" horiz-adv-x="1097" d="M80 932q0 88 26.5 171t82 147.5t138.5 103.5t193 39q246 0 358.5 -182.5t112.5 -534.5q0 -356 -125 -536.5t-387 -180.5q-100 0 -178 19.5t-139 41.5l10 41q47 -8 117.5 -14t148.5 -6q92 0 160 37t112 105.5t65.5 164.5t21.5 215q-53 -39 -126 -65.5t-182 -26.5 t-185.5 33t-126.5 93t-73.5 145t-23.5 190zM274 932q0 -176 66 -277.5t211 -101.5q78 0 135.5 27.5t110.5 74.5q0 176 -20.5 301t-56.5 204t-87 115t-113 36q-57 0 -103 -32t-78 -85t-48.5 -120.5t-16.5 -141.5z" />
<glyph unicode=":" horiz-adv-x="493" d="M135 84q0 45 33 78t78 33q47 0 79.5 -33t32.5 -78q0 -47 -32.5 -80t-79.5 -33q-45 0 -78 33t-33 80zM137 834q0 45 33 77.5t78 32.5q47 0 78.5 -32.5t31.5 -77.5q0 -47 -31.5 -79t-78.5 -32q-45 0 -78 31.5t-33 79.5z" />
<glyph unicode=";" horiz-adv-x="528" d="M135 82q0 45 36 84t97 39q53 0 88 -43t35 -121q0 -109 -51 -190.5t-174 -165.5l-23 28q78 61 122 124t44 163q-8 -8 -24.5 -19.5t-46.5 -11.5q-47 0 -75 33t-28 80zM156 836q0 45 32.5 76.5t79.5 31.5q45 0 78 -31.5t33 -76.5q0 -47 -33 -79t-78 -32q-47 0 -79.5 31.5 t-32.5 79.5z" />
<glyph unicode="&#x3c;" horiz-adv-x="1265" d="M61 655v62l1065 461v-123l-854 -369l854 -369v-122z" />
<glyph unicode="=" horiz-adv-x="1345" d="M135 430v123h1075v-123h-1075zM135 799v123h1075v-123h-1075z" />
<glyph unicode="&#x3e;" horiz-adv-x="1265" d="M139 195v122l854 369l-854 369v123l1065 -461v-62z" />
<glyph unicode="?" horiz-adv-x="978" d="M61 963q0 78 6.5 148.5t45.5 117.5q55 68 161.5 116t229.5 48q61 0 133 -14.5t133 -57.5t102 -119t41 -198q0 -86 -29.5 -152t-74.5 -119t-97.5 -99t-97.5 -93t-76.5 -100.5t-33.5 -121.5h-82q2 84 24.5 146.5t54 113t68.5 94.5t68 92t51.5 104.5t20.5 134.5 q0 76 -21.5 134t-58.5 96t-85 57.5t-102 19.5q-123 0 -216 -89t-124 -259h-41zM352 84q0 47 32 80t79 33t79.5 -33t32.5 -80q0 -45 -33.5 -78t-78.5 -33q-47 0 -79 33t-32 78z" />
<glyph unicode="@" horiz-adv-x="1753" d="M82 512q0 215 58.5 380t164 275.5t253 168t323.5 57.5t323.5 -56.5t253 -164t163.5 -264t58 -355.5q0 -123 -23.5 -223.5t-72.5 -171t-124 -109.5t-179 -39q-86 0 -139.5 30t-75.5 83h-10q-31 -39 -100.5 -76t-186.5 -37q-43 0 -94 13.5t-96.5 46t-76 88t-30.5 139.5 t43 139.5t114.5 88t166 46t198.5 13.5h62q0 106 -16.5 174.5t-45 106.5t-68.5 52.5t-85 14.5q-86 0 -144.5 -37t-81.5 -137h-92q0 53 6.5 99t44.5 85q18 18 52 32.5t75 23t87.5 12.5t93.5 4q70 0 134 -15.5t114.5 -61.5t80 -131t29.5 -222v-369q0 -47 24.5 -85t77.5 -38 q49 0 96.5 32t82 91t56 144t21.5 194q0 184 -51 325.5t-145 237.5t-226.5 145.5t-293.5 49.5q-162 0 -294 -50.5t-226.5 -149.5t-145.5 -249.5t-51 -349.5q0 -201 51 -350.5t145.5 -248.5t226.5 -149.5t294 -50.5q201 0 356.5 44t278.5 130l40 -61q-123 -86 -287.5 -140.5 t-387.5 -54.5q-176 0 -323.5 57.5t-253 168t-164 275.5t-58.5 380zM666 297q0 -49 16 -86t43 -61.5t61.5 -36t73.5 -11.5q76 0 120 38t75 85v277h-62q-154 0 -240.5 -56.5t-86.5 -148.5z" />
<glyph unicode="A" horiz-adv-x="1300" d="M45 0l573 1352h62l450 -1096q25 -57 46.5 -97t48 -64.5t57.5 -37t74 -16.5v-41q-35 -10 -82 -10q-35 0 -81 8t-94 35.5t-94.5 81t-78.5 141.5l-52 133h-573l-164 -389h-92zM332 471h502l-246 594z" />
<glyph unicode="B" horiz-adv-x="1273" d="M33 1311v41h532q80 0 177.5 -11.5t180.5 -49.5t139 -108.5t56 -189.5q0 -92 -63.5 -171t-202.5 -126q100 -16 164.5 -45.5t103.5 -71.5t54.5 -95.5t15.5 -114.5q0 -115 -52.5 -187.5t-133 -112.5t-181 -54.5t-196.5 -14.5h-410v1106q0 92 -25.5 148.5t-117.5 56.5h-41z M401 100q47 -14 97.5 -21t97.5 -7q186 0 287.5 73.5t101.5 212.5t-98.5 213t-290.5 74h-195v-545zM401 727h195q61 0 119.5 17.5t104.5 52t75 86t29 121.5q0 74 -35 126t-88 85.5t-119 49t-127 15.5q-39 0 -81 -6t-73 -14v-533z" />
<glyph unicode="C" horiz-adv-x="1361" d="M90 655q0 154 50 288t136 234.5t202 158t247 57.5q170 0 293 -48.5t178 -115.5q39 -47 45 -131t6 -176h-41q-39 201 -144.5 295t-275.5 94q-100 0 -189 -34t-156.5 -110.5t-106.5 -201.5t-39 -310q0 -115 27.5 -225.5t87 -196.5t152.5 -139t224 -53q154 0 264.5 73.5 t196.5 213.5l41 -31q-49 -96 -109.5 -160.5t-130 -104.5t-150.5 -56.5t-173 -16.5q-145 0 -263 54.5t-201 148.5t-127 221t-44 272z" />
<glyph unicode="D" horiz-adv-x="1464" d="M33 1311v41h536q203 0 354.5 -47.5t251 -133.5t149.5 -209.5t50 -277.5q0 -150 -48 -275.5t-142 -216t-234.5 -141.5t-326.5 -51h-406v1106q0 92 -25.5 148.5t-117.5 56.5h-41zM408 98q117 -26 202 -26h6q113 0 211.5 42t170 120.5t112.5 190.5t41 251q0 135 -40 246.5 t-111.5 191.5t-171 123t-216.5 43q-45 0 -97 -8t-107 -25v-1149z" />
<glyph unicode="E" horiz-adv-x="1208" d="M33 1311v41h872q53 0 87 -14.5t53.5 -37t26.5 -52t7 -60.5v-154h-41q0 123 -66.5 179.5t-189.5 56.5h-381v-533h553v-82h-553v-573h359q139 0 220 51t128 174l41 -10l-72 -195q-16 -47 -54 -74.5t-99 -27.5h-707v1106q0 92 -25.5 148.5t-117.5 56.5h-41z" />
<glyph unicode="F" horiz-adv-x="1079" d="M33 1311v41h817q53 0 87 -14.5t53.5 -37t26.5 -52t7 -60.5v-154h-41q0 123 -66.5 179.5t-189.5 56.5h-326v-543h463v-82h-463v-645h-184v1106q0 92 -25.5 148.5t-117.5 56.5h-41z" />
<glyph unicode="G" horiz-adv-x="1474" d="M90 696q0 145 44 272.5t127 221.5t201 148.5t263 54.5q186 0 311 -48.5t181 -115.5q18 -23 29 -56.5t15.5 -70.5t5.5 -76t1 -74h-41q-39 178 -147 268.5t-294 90.5q-131 0 -224 -53.5t-152.5 -139.5t-87 -196.5t-27.5 -225.5q0 -184 39 -310t106.5 -203t156.5 -109.5 t189 -32.5q111 0 184.5 19.5t133.5 52.5v356q0 43 9 85t44 77t102.5 56.5t182.5 21.5v-41q-49 0 -80 -13.5t-47.5 -39t-21.5 -61.5t-5 -81v-385q-111 -68 -231.5 -98.5t-270.5 -30.5q-154 0 -281.5 57.5t-219.5 157.5t-143.5 234.5t-51.5 287.5z" />
<glyph unicode="H" horiz-adv-x="1419" d="M33 1311v41h184q53 0 89 -9.5t57.5 -37t29.5 -75.5t8 -124v-369h615v615h184v-1106q0 -92 25.5 -148.5t117.5 -56.5h41v-41h-184q-53 0 -89 9t-57.5 37t-29.5 75t-8 125v409h-615v-655h-184v1106q0 92 -25.5 148.5t-117.5 56.5h-41z" />
<glyph unicode="I" horiz-adv-x="583" d="M182 246v1106h185v-1106q0 -92 25.5 -148.5t117.5 -56.5h41v-41h-184q-53 0 -89 9t-57.5 37t-30 75t-8.5 125z" />
<glyph unicode="J" horiz-adv-x="534" d="M-18 -240q100 0 147 106.5t47 293.5v1192h184v-1192q0 -115 -17 -199t-60 -137t-117 -79t-184 -26v41z" />
<glyph unicode="K" horiz-adv-x="1386" d="M33 1311v41h184q53 0 89 -9.5t57.5 -37t29.5 -75.5t8 -124v-399l430 430q39 39 75 76.5t76 68.5t88 50.5t110 19.5h102v-52q-84 0 -148.5 -29.5t-148.5 -113.5l-399 -399l471 -492q84 -88 177 -152.5t171 -74.5v-39q-23 -8 -54.5 -14t-78.5 -6q-43 0 -89 9t-100.5 36.5 t-116 74.5t-135.5 125l-430 451v-676h-184v1106q0 92 -25.5 148.5t-117.5 56.5h-41z" />
<glyph unicode="L" horiz-adv-x="1142" d="M33 1311v41h184q53 0 89 -9.5t57.5 -37t29.5 -75.5t8 -124v-1024h727v-82h-911v1106q0 92 -25.5 148.5t-117.5 56.5h-41z" />
<glyph unicode="M" horiz-adv-x="1751" d="M176 0v1352h195l491 -1065l481 1065h185v-1004q0 -186 47 -292.5t147 -106.5v-41q-111 0 -184.5 25.5t-116.5 79t-60.5 137t-17.5 198.5v789l-512 -1137h-40l-533 1157v-1157h-82z" />
<glyph unicode="N" horiz-adv-x="1402" d="M20 1311v41h134q100 0 164.5 -33t111.5 -90l717 -891v1014h82v-1372h-41l-881 1095v-1075h-82v1106q0 92 -39 148.5t-145 56.5h-21z" />
<glyph unicode="O" horiz-adv-x="1458" d="M94 676q0 150 44 280.5t127 228t201 153t263 55.5t263 -55.5t201 -153t127 -228.5t44 -280q0 -152 -44 -282t-127 -227t-201 -152.5t-263 -55.5t-263 55.5t-201 152.5t-127 227t-44 282zM299 676q0 -145 29.5 -263t85 -201t135.5 -127t180 -44t180 44t135.5 127t85 201 t29.5 263t-29.5 263t-85 201t-135.5 127t-180 44t-180 -44t-135.5 -127t-85 -201t-29.5 -263z" />
<glyph unicode="P" horiz-adv-x="1130" d="M33 1311v41h532q66 0 154 -12.5t168 -54.5t135 -124t55 -219q0 -88 -25.5 -150.5t-66.5 -105.5t-91 -69.5t-100.5 -40t-94.5 -18.5t-72 -5h-226v-553h-184v1106q0 92 -25.5 148.5t-117.5 56.5h-41zM401 645q31 -8 73 -14t81 -6q43 0 97.5 16t103.5 55t82.5 101.5 t33.5 154.5t-33.5 154.5t-82.5 101.5t-103.5 55.5t-97.5 16.5q-39 0 -81 -6t-73 -14v-615z" />
<glyph unicode="Q" horiz-adv-x="1462" d="M96 676q0 150 44 280.5t127 228t201 153t263 55.5t263 -55.5t201 -153t127 -228.5t44 -280q0 -127 -31.5 -240.5t-92 -205t-147.5 -156t-196 -92.5q25 -78 79 -143.5t122.5 -114t144.5 -76t141 -27.5v-41q-111 0 -221 19.5t-215.5 65.5t-207 125t-195.5 196 q-104 31 -188.5 95t-142.5 155.5t-89 203t-31 236.5zM301 676q0 -145 29.5 -263t85 -201t135.5 -127t180 -44t180 44t135.5 127t85 201t29.5 263t-29.5 263t-85 201t-135.5 127t-180 44t-180 -44t-135.5 -127t-85 -201t-29.5 -263z" />
<glyph unicode="R" horiz-adv-x="1218" d="M33 1311v41h532q66 0 154 -11.5t168 -50.5t135 -111.5t55 -195.5q0 -88 -30.5 -149.5t-78.5 -101.5t-106.5 -62.5t-111.5 -34.5l215 -359q39 -66 72.5 -108.5t66.5 -70t65.5 -40t71.5 -16.5v-41q-16 -8 -50 -14t-73 -6q-53 0 -99 14t-89 49t-87 92.5t-93 140.5l-205 349 h-144v-625h-184v1106q0 92 -25.5 148.5t-117.5 56.5h-41zM401 717q31 -8 73 -14.5t81 -6.5q43 0 97.5 16.5t103.5 50.5t82.5 88t33.5 132q0 80 -33.5 137.5t-82.5 92t-103.5 51t-97.5 16.5q-39 0 -81 -6t-73 -14v-543z" />
<glyph unicode="S" horiz-adv-x="1091" d="M111 215v219h36q35 -207 136.5 -297t275.5 -90q53 0 101.5 13.5t85 40t59 65.5t22.5 90q0 90 -56 153.5t-169 129.5l-252 149q-131 78 -185 158t-54 194q0 80 28.5 143.5t80.5 109.5t125 71t163 25q76 0 154.5 -16.5t142 -48.5t104.5 -78t41 -103v-219h-37 q-35 207 -133 295t-272 88q-45 0 -88 -14.5t-76 -41t-53.5 -65.5t-20.5 -86q0 -45 14.5 -80t43 -65.5t71.5 -60.5t99 -63l252 -149q66 -39 113.5 -75t78.5 -75.5t46.5 -85t15.5 -102.5q0 -86 -30 -155.5t-85 -120t-134 -77t-177 -26.5q-84 0 -167 17.5t-149.5 50.5 t-108.5 79t-42 103z" />
<glyph unicode="T" horiz-adv-x="1193" d="M43 1034v154q0 31 7 60.5t26.5 52t53.5 37t87 14.5h952v-82h-460v-1270h-185v1270h-184q-123 0 -189.5 -56.5t-66.5 -179.5h-41z" />
<glyph unicode="U" horiz-adv-x="1406" d="M18 1311v41h185q53 0 89 -9.5t57.5 -37t29.5 -75.5t8 -124v-584q0 -109 18.5 -193.5t61.5 -144t111.5 -91.5t171.5 -32q117 0 196.5 31t128.5 95.5t69.5 163t20.5 233.5v768h82v-768q0 -150 -22.5 -263.5t-81 -189.5t-159.5 -113.5t-259 -37.5q-150 0 -250 37.5 t-160.5 113.5t-86 189.5t-25.5 263.5v522q0 92 -25.5 148.5t-118.5 56.5h-41z" />
<glyph unicode="V" horiz-adv-x="1310" d="M-59 1327v41q8 0 31.5 2t37.5 2q37 0 84 -8t95.5 -34.5t94.5 -78t83 -139.5l350 -825q51 119 85 194.5t55.5 126.5t35.5 86t28.5 69t31 75t44 106.5t68.5 162.5t102 245h99l-588 -1372h-37l-475 1132q-25 57 -46.5 97t-48 64.5t-57 37t-73.5 16.5z" />
<glyph unicode="W" horiz-adv-x="1773" d="M-66 1327v41q8 0 32 2t38 2q43 0 91 -7t95.5 -33.5t90.5 -79t73 -140.5l275 -790l219 649l-49 141q-20 57 -41 97t-46.5 64.5t-59.5 37t-79 16.5v41q8 0 32 2t38 2q43 0 91 -7t95.5 -33.5t90.5 -79t73 -140.5l275 -790l350 1030h88l-469 -1372h-41l-303 862l-295 -862 h-41l-397 1132q-20 57 -41 97t-46.5 64.5t-59 37t-79.5 16.5z" />
<glyph unicode="X" horiz-adv-x="1366" d="M-18 1311v41h245q49 0 91 -20.5t77 -53.5t63.5 -73t55.5 -79l205 -307l409 533h103l-461 -604l328 -482q27 -39 57.5 -76.5t67.5 -69.5t80 -53.5t92 -25.5v-41h-215q-49 0 -91 20.5t-77 53t-64.5 72.5t-54.5 79l-246 369l-461 -594h-102l512 666l-287 419 q-27 39 -55.5 77t-65 70t-87 53.5t-119.5 25.5z" />
<glyph unicode="Y" horiz-adv-x="1286" d="M-51 1311v41h184q57 0 102.5 -19.5t82 -51.5t66.5 -72t56 -83l297 -460l428 686h92l-479 -779v-573h-184v559l-348 526q-31 45 -60.5 85t-64.5 70t-77 48.5t-95 22.5z" />
<glyph unicode="Z" horiz-adv-x="1210" d="M49 0v41l850 1229h-491q-123 0 -189.5 -56.5t-66.5 -179.5h-41v154q0 31 7 60.5t26.5 52t53 37t87.5 14.5h891l-871 -1270h840v-82h-1096z" />
<glyph unicode="[" horiz-adv-x="647" d="M154 -410v1803h440v-82h-277v-1639h277v-82h-440z" />
<glyph unicode="\" horiz-adv-x="901" d="M47 1352h150l657 -1352h-149z" />
<glyph unicode="]" horiz-adv-x="647" d="M53 -328h277v1639h-277v82h441v-1803h-441v82z" />
<glyph unicode="^" horiz-adv-x="1003" d="M41 676l440 717h41l441 -717h-138l-323 526l-324 -526h-137z" />
<glyph unicode="_" horiz-adv-x="884" d="M33 0h819v-123h-819v123z" />
<glyph unicode="`" horiz-adv-x="409" d="M41 1393h205l123 -410h-103z" />
<glyph unicode="a" horiz-adv-x="985" d="M80 266q0 84 43 139.5t114.5 88t166 46t198.5 13.5h62q0 106 -16.5 175t-45.5 106.5t-68.5 52t-84.5 14.5q-86 0 -144.5 -37t-81.5 -137h-92q0 53 6 99t45 85q18 18 52 32.5t75 23t87 12.5t93 4q70 0 134.5 -15.5t114.5 -61.5t80 -131t30 -222v-553h-103l-71 92h-10 q-31 -39 -100.5 -75.5t-186.5 -36.5q-43 0 -94.5 13t-96.5 46t-75.5 88t-30.5 139zM274 266q0 -49 16.5 -86t43 -61.5t61.5 -35.5t74 -11q76 0 120 37.5t75 85.5v276h-62q-154 0 -241 -56.5t-87 -148.5z" />
<glyph unicode="b" horiz-adv-x="1071" d="M-37 1311v41h184q53 0 89 -9.5t57.5 -37t30 -75.5t8.5 -124v-184q47 23 108.5 42t147.5 19q100 0 173 -40t121 -107.5t71.5 -158.5t23.5 -196q0 -104 -23.5 -195t-69.5 -159t-115 -107.5t-161 -39.5q-115 0 -180.5 36.5t-95.5 75.5h-10l-72 -92h-103v1106 q0 92 -25.5 148.5t-117.5 56.5h-41zM332 184q31 -47 81 -85t134 -38q61 0 105 33t74 89.5t43 133t13 164.5t-14 165t-45 133.5t-79 89t-118 32.5q-47 0 -97 -19.5t-97 -41.5v-656z" />
<glyph unicode="c" horiz-adv-x="989" d="M92 481q0 104 27.5 195.5t83 159t140.5 107.5t200 40q109 0 183.5 -16.5t113.5 -55.5q18 -18 29.5 -40.5t15.5 -53.5t5 -73t1 -99h-41q-8 131 -83 193.5t-183 62.5q-78 0 -133.5 -32.5t-92 -89t-54 -133.5t-17.5 -165t17.5 -164.5t54 -133t92 -89.5t133.5 -33 q109 0 176 43t121 121l41 -30q-70 -117 -163 -166t-216 -49q-115 0 -200 39.5t-140.5 107.5t-83 159t-27.5 195z" />
<glyph unicode="d" horiz-adv-x="1073" d="M96 481q0 104 23.5 195.5t72 159t121 107.5t172.5 40q86 0 147.5 -19.5t108.5 -41.5v184q0 92 -25.5 148.5t-117.5 56.5h-41v41h184q53 0 89 -9.5t57.5 -37t30 -75.5t8.5 -124v-1106h-103l-71 92h-11q-16 -18 -37.5 -38.5t-54.5 -37t-78 -26.5t-106 -10q-92 0 -162 39.5 t-116 107.5t-68.5 159t-22.5 195zM291 481q0 -88 13 -164.5t43 -133t74 -89.5t105 -33q45 0 79 10.5t59.5 28t43 40t33.5 44.5v656q-47 23 -97 42t-97 19q-70 0 -118 -32.5t-79 -89t-45 -133.5t-14 -165z" />
<glyph unicode="e" horiz-adv-x="999" d="M92 481q0 104 27.5 195.5t81 159t129.5 107.5t172 40q209 0 309 -116.5t100 -334.5l-4 -81h-620q0 -84 18.5 -156t54 -124t87 -81t116.5 -29q100 0 167 43t120 121l41 -30q-70 -117 -161 -166t-208 -49q-109 0 -188.5 39.5t-134 107.5t-81 159t-26.5 195zM287 532h430 q0 178 -53.5 273.5t-161.5 95.5q-47 0 -86 -27.5t-68 -76.5t-45 -117t-16 -148z" />
<glyph unicode="f" horiz-adv-x="690" d="M43 881v82h143v61q0 106 32 175t82 106.5t114.5 52t130.5 14.5q127 0 174 -31q23 -16 39 -38.5t33 -53.5l-62 -51q-61 92 -194 92q-35 0 -65 -13t-52.5 -44t-34.5 -82t-12 -127v-61h286v-82h-286v-881h-185v881h-143z" />
<glyph unicode="g" horiz-adv-x="1007" d="M53 -92q0 100 66.5 167.5t159.5 98.5q-31 16 -56.5 46t-25.5 77t24.5 71.5t46.5 41.5q-61 31 -107 98.5t-46 167.5q0 88 30.5 147.5t83 94t124 50t151.5 15.5h379v-51l-133 -21v-10q61 -31 102 -89t41 -136q0 -88 -31 -147.5t-83 -94.5t-123.5 -50t-151.5 -15 q-215 0 -215 -72t215 -72q92 0 174 -18.5t143.5 -56t97 -98t35.5 -144.5q0 -88 -34.5 -148.5t-95 -98.5t-142.5 -54.5t-178 -16.5t-178 16.5t-142.5 54.5t-95.5 98.5t-35 148.5zM238 -92q0 -123 74.5 -179.5t191.5 -56.5t191.5 56.5t74.5 179.5q0 205 -246 235l-112 11 q-78 -31 -126 -88.5t-48 -157.5zM299 676q0 -66 16.5 -111t44 -72.5t64.5 -40t80 -12.5t80 12.5t64.5 40t44 72.5t16.5 111q0 123 -59.5 179t-145.5 56q-43 0 -80 -12t-64.5 -40t-44 -73t-16.5 -110z" />
<glyph unicode="h" horiz-adv-x="1083" d="M-37 1311v41h184q53 0 89 -9.5t57.5 -37t30 -75.5t8.5 -124v-225q39 39 106.5 70.5t159.5 31.5q66 0 128 -15.5t111.5 -57.5t79 -113.5t29.5 -182.5v-614h-184v614q0 76 -19.5 129.5t-51.5 86t-71.5 47t-82.5 14.5q-61 0 -113.5 -33t-91.5 -76v-782h-185v1106 q0 92 -25.5 148.5t-117.5 56.5h-41z" />
<glyph unicode="i" horiz-adv-x="503" d="M-6 922v41h184q53 0 89 -9.5t57.5 -37t29.5 -75.5t8 -124v-717h-184v717q0 92 -25.5 148.5t-117.5 56.5h-41zM141 1217q0 43 26 67.5t69 24.5q47 0 80.5 -39t33.5 -92q0 -43 -25.5 -68t-68.5 -25q-47 0 -81 39t-34 93z" />
<glyph unicode="j" horiz-adv-x="503" d="M-16 -348q100 0 147 106.5t47 292.5v666q0 92 -25.5 148.5t-117.5 56.5h-41v41h184q53 0 89 -9.5t57.5 -37t29.5 -75.5t8 -124v-666q0 -115 -17 -198.5t-60 -137t-117 -79t-184 -25.5v41zM141 1217q0 43 26 67.5t69 24.5q47 0 80.5 -39t33.5 -92q0 -43 -25.5 -68 t-68.5 -25q-47 0 -81 39t-34 93z" />
<glyph unicode="k" horiz-adv-x="993" d="M-37 1311v41h184q53 0 89 -9.5t57.5 -37t30 -75.5t8.5 -124v-604l256 327q47 59 106.5 96.5t159.5 37.5h61v-52q-53 0 -104 -22.5t-90 -69.5l-225 -287l256 -327q59 -78 111 -117t114 -49v-39q-16 -8 -44 -14t-59 -6q-78 0 -152.5 35.5t-143.5 127.5l-246 328v-471h-185 v1106q0 92 -25.5 148.5t-117.5 56.5h-41z" />
<glyph unicode="l" horiz-adv-x="495" d="M-29 1311v41h185q53 0 89 -9.5t57.5 -37t29.5 -75.5t8 -124v-1106h-184v1106q0 92 -26 148.5t-118 56.5h-41z" />
<glyph unicode="m" horiz-adv-x="1607" d="M-6 922v41h184q78 0 118 -21.5t56 -60.5h10q39 39 107 70.5t160 31.5q78 0 142.5 -28.5t102.5 -114.5q53 70 137.5 106.5t170.5 36.5q57 0 109 -15.5t91 -57.5t62.5 -113.5t23.5 -182.5v-614h-184v614q0 154 -43 215.5t-121 61.5q-31 0 -62.5 -12.5t-60 -32t-53 -43 t-39.5 -45.5q8 -23 9 -68t1 -76v-614h-184v614q0 154 -43 215.5t-121 61.5q-61 0 -113.5 -33t-91.5 -76v-782h-184v717q0 92 -25.5 148.5t-117.5 56.5h-41z" />
<glyph unicode="n" horiz-adv-x="1114" d="M-6 922v41h184q78 0 118 -21.5t56 -60.5h10q39 39 107 70.5t160 31.5q66 0 128 -15.5t111.5 -57.5t79 -113.5t29.5 -182.5v-614h-184v614q0 76 -19.5 129.5t-51.5 86t-72 47t-83 14.5q-61 0 -113.5 -33t-91.5 -76v-782h-184v717q0 92 -25.5 148.5t-117.5 56.5h-41z" />
<glyph unicode="o" d="M92 481q0 104 30 195.5t88 159t141 107.5t192 40q106 0 190 -40t142.5 -107.5t88 -158.5t29.5 -196q0 -104 -29.5 -195t-88 -159t-142.5 -107.5t-190 -39.5q-109 0 -192 39.5t-141 107.5t-88 159t-30 195zM287 481q0 -88 18.5 -164.5t52 -133t80.5 -89.5t105 -33 q57 0 104 33t81 89.5t52.5 133t18.5 164.5t-18.5 165t-52.5 133.5t-81 89t-104 32.5t-104.5 -32.5t-81 -89t-52 -133.5t-18.5 -165z" />
<glyph unicode="p" horiz-adv-x="1101" d="M-6 922v41h184q78 0 118 -22.5t56 -70.5h10q31 39 96.5 76t180.5 37q92 0 160.5 -40t115 -107.5t70 -158.5t23.5 -196q0 -104 -23.5 -195t-72 -159t-121 -107.5t-173.5 -39.5q-86 0 -147 19t-109 42v-430h-184v1106q0 92 -25.5 148.5t-117.5 56.5h-41zM362 123 q47 -23 97.5 -42.5t97.5 -19.5q70 0 118 33t78.5 89.5t45 133t14.5 164.5t-13.5 165t-43 133.5t-73.5 89t-105 32.5q-43 0 -76 -10t-58.5 -27.5t-46 -40t-35.5 -45.5v-655z" />
<glyph unicode="q" horiz-adv-x="1073" d="M96 481q0 104 22.5 195.5t68.5 159t116 107.5t162 40q115 0 180.5 -37t95.5 -76h11l71 93h103v-1352h-185v430q-47 -23 -108.5 -42t-147.5 -19q-100 0 -172.5 39.5t-121 107.5t-72 159t-23.5 195zM291 481q0 -88 14 -164.5t45 -133t79 -89.5t118 -33q47 0 97 19.5 t97 42.5v655q-16 23 -35.5 45.5t-45 40t-58.5 27.5t-76 10q-61 0 -105 -32.5t-74 -89t-43 -133.5t-13 -165z" />
<glyph unicode="r" horiz-adv-x="813" d="M0 922v41h164q78 0 118 -22.5t56 -70.5h10q31 39 92.5 76t153.5 37q31 0 65.5 -7t57.5 -24q23 -16 39 -38.5t32 -53.5l-81 -61q-23 31 -67 46t-97 15q-61 0 -112.5 -27.5t-82.5 -74.5v-758h-184v717q0 92 -25.5 148.5t-118.5 56.5h-20z" />
<glyph unicode="s" horiz-adv-x="913" d="M100 276h40q16 -100 86.5 -157.5t201.5 -57.5q117 0 171 41t54 103q0 61 -46 103t-138 81l-123 51q-117 47 -181.5 111.5t-64.5 165.5q0 66 26 115t71 82.5t106.5 51t134.5 17.5q117 0 193 -21.5t114 -60.5q39 -39 45.5 -88t6.5 -127h-41q-16 100 -85 157.5t-192 57.5 q-100 0 -152.5 -41t-52.5 -102q0 -53 43 -97.5t121 -76.5l123 -52q131 -53 198.5 -116.5t67.5 -169.5q0 -66 -27.5 -115t-74.5 -83t-113.5 -51t-142.5 -17q-123 0 -201 21.5t-116 59.5q-39 39 -45.5 88.5t-6.5 126.5z" />
<glyph unicode="t" horiz-adv-x="692" d="M43 881v82h143v184l103 123h82v-307h245v-82h-245v-635q0 -184 143 -185q53 0 88 12.5t66 28.5l20 -41q-16 -12 -37.5 -26.5t-52.5 -26.5t-72 -20t-94 -8q-109 0 -177.5 63t-68.5 203v635h-143z" />
<glyph unicode="u" horiz-adv-x="1095" d="M-14 922v41h164q53 0 88.5 -9.5t57 -37t30 -75.5t8.5 -124v-369q0 -78 19.5 -130t51 -85t71.5 -47t83 -14q61 0 113.5 32.5t91.5 75.5v783h184v-963h-102l-72 82h-10q-39 -39 -106.5 -70.5t-159.5 -31.5q-66 0 -128.5 15t-111.5 57t-78.5 114t-29.5 182v369 q0 92 -26 148.5t-118 56.5h-20z" />
<glyph unicode="v" horiz-adv-x="1017" d="M-10 938v41q8 0 31.5 2t37.5 2q45 0 93.5 -10t93.5 -38t86 -78t76 -130l184 -440l287 676h102l-420 -983h-41l-317 747q-25 57 -47.5 96t-47 63.5t-53 37t-65.5 14.5z" />
<glyph unicode="w" horiz-adv-x="1533" d="M-10 938v41q8 0 32.5 2t38.5 2q49 0 97.5 -11t91.5 -40t81 -79t68 -126l174 -430l175 440q-47 106 -91.5 151.5t-113.5 49.5v41q8 0 32.5 2t38.5 2q49 0 97.5 -11t91.5 -40t81 -79t68 -126l174 -430l267 666h102l-399 -983h-41l-256 634l-256 -634h-41l-297 747 q-47 115 -93 161t-122 50z" />
<glyph unicode="x" horiz-adv-x="999" d="M16 922v41h174q70 0 128.5 -44.5t103.5 -119.5l127 -215l266 379h103l-328 -461l178 -297q86 -150 221 -164v-41h-184q-70 0 -128.5 44t-103.5 120l-127 215l-266 -379h-102l328 461l-179 297q-86 147 -211 164z" />
<glyph unicode="y" horiz-adv-x="1052" d="M-20 942v41h174q92 0 152.5 -43t92.5 -121l234 -567l258 711h102l-399 -1096q-31 -84 -64.5 -138.5t-71.5 -85t-83 -42t-99 -11.5h-61v62q45 0 86 9t75 32.5t62.5 65.5t53.5 108l40 113l-327 798q-31 78 -89.5 117t-135.5 47z" />
<glyph unicode="z" horiz-adv-x="954" d="M90 0v39l533 842h-236q-131 0 -193.5 -49.5t-62.5 -135.5h-41v103q0 31 7 60.5t26.5 52t53.5 37t87 14.5h625l-553 -881h553v-82h-799z" />
<glyph unicode="{" horiz-adv-x="622" d="M23 461v61q57 8 96 29.5t63.5 53.5t34.5 71t10 82v286q0 137 77 229.5t261 139.5v-61q-53 -16 -87 -36t-53 -46.5t-26.5 -62.5t-7.5 -81v-348q0 -123 -53 -189.5t-162 -96.5q109 -31 162 -97.5t53 -189.5v-348q0 -47 7.5 -82t26.5 -61.5t53 -47t87 -35.5v-61 q-184 45 -261 137t-77 232v286q0 43 -10 82t-34.5 71t-63.5 53.5t-96 29.5z" />
<glyph unicode="|" horiz-adv-x="491" d="M154 -389v1782h184v-1782h-184z" />
<glyph unicode="}" horiz-adv-x="622" d="M57 -369q53 14 87 35t53.5 47.5t26.5 61.5t7 82v348q0 123 53.5 189.5t161.5 97.5q-109 31 -162 97t-53 189v348q0 45 -7 81t-26.5 62.5t-53 46t-87.5 36.5v61q184 -47 261 -139t77 -230v-286q0 -43 10.5 -82t35 -71t63.5 -53.5t96 -29.5v-61q-57 -8 -96 -29.5 t-63.5 -53.5t-35 -71t-10.5 -82v-286q0 -139 -76.5 -231.5t-261.5 -137.5v61z" />
<glyph unicode="~" horiz-adv-x="1288" d="M123 389q0 76 21.5 131t55 89t78 50.5t91.5 16.5q76 0 149.5 -25.5t142 -56.5t134 -56.5t127.5 -25.5q78 0 120.5 41t42.5 102h82q0 -78 -21.5 -132t-55 -88t-78.5 -50t-90 -16q-78 0 -151 25.5t-141.5 56t-134 56t-126.5 25.5q-78 0 -121 -40.5t-43 -102.5h-82z" />
<glyph unicode="&#xa2;" horiz-adv-x="989" d="M82 481q0 98 25.5 186.5t75.5 156t127 109.5t182 50v82h81v-82q86 0 154 -18.5t102 -53.5q18 -18 29.5 -40.5t16 -53.5t5.5 -73t1 -99h-41q-8 131 -83 193.5t-184 62.5v-840q109 0 176.5 43t120.5 121l41 -30q-63 -106 -146 -156.5t-192 -58.5v-82h-81v82 q-104 8 -181.5 50t-127.5 109.5t-75.5 155.5t-25.5 186zM276 481q0 -76 13.5 -143.5t40 -121.5t67.5 -92t95 -52v819q-53 -16 -94.5 -53t-68 -91.5t-40 -122t-13.5 -143.5z" />
<glyph unicode="&#xa3;" horiz-adv-x="1081" d="M66 0v51q43 12 74.5 38t54 73t34 117.5t11.5 171.5v204h-144v82h144v205q0 137 29.5 222t79.5 131t114.5 61.5t134.5 15.5q45 0 92 -4t88 -12t75 -22.5t52 -33.5q39 -39 45 -85t6 -99h-92q-23 100 -81 137t-144 37q-47 0 -86 -14t-67.5 -52t-45 -106.5t-16.5 -175.5v-205 h287v-82h-287v-204q0 -147 -29.5 -234.5t-83.5 -134.5h379q123 0 189.5 56.5t66.5 178.5h41v-153q0 -31 -7 -60.5t-26.5 -52t-53.5 -37t-87 -14.5h-747z" />
<glyph unicode="&#xa5;" horiz-adv-x="1406" d="M49 1311v41h184q57 0 102.5 -19.5t82.5 -51.5t66.5 -72t56.5 -83l297 -460l428 686h92l-479 -779v-30h194v-82h-194v-82h194v-82h-194v-297h-185v297h-194v82h194v82h-194v82h194v16l-348 526q-31 45 -60.5 85t-64.5 70t-77 48.5t-95 22.5z" />
<glyph unicode="&#xa8;" horiz-adv-x="634" d="M41 1516q0 47 27.5 74.5t74.5 27.5t75 -27.5t28 -74.5t-28 -75t-75 -28t-74.5 27.5t-27.5 75.5zM389 1516q0 47 27.5 74.5t75.5 27.5q47 0 74.5 -27.5t27.5 -74.5t-27.5 -75t-74.5 -28t-75 27.5t-28 75.5z" />
<glyph unicode="&#xa9;" horiz-adv-x="1617" d="M82 676q0 158 54 291t151.5 230t230.5 151.5t291 54.5t291 -54.5t230 -151.5t151.5 -230t54.5 -291t-54.5 -291t-151.5 -230.5t-230 -151.5t-291 -54t-291 54t-230.5 151.5t-151.5 230.5t-54 291zM164 676q0 -141 47 -260t133 -205t205 -133t260 -47t260 47t205 133 t133 205t47 260t-47 260t-133 205t-205 133t-260 47t-260 -47t-205 -133t-133 -205t-47 -260zM399 670q0 100 33 188t88 152.5t130 102.5t159 38q111 0 190.5 -32t114.5 -75q27 -31 31 -86t4 -114h-27q-25 131 -93 192.5t-179 61.5q-66 0 -123 -21.5t-101 -72t-70 -132 t-26 -202.5q0 -76 18.5 -147.5t57.5 -128t99.5 -90.5t144.5 -34q100 0 172 47.5t127 139.5l27 -21q-66 -125 -156 -173t-211 -48q-94 0 -170 35t-129 96.5t-82 144t-29 179.5z" />
<glyph unicode="&#xab;" horiz-adv-x="761" d="M72 461l317 399h82l-195 -399l195 -400h-82zM358 461l205 297h82l-123 -297l123 -297h-82z" />
<glyph unicode="&#xad;" horiz-adv-x="792" d="M135 471v143h522v-143h-522z" />
<glyph unicode="&#xae;" horiz-adv-x="1617" d="M82 676q0 158 54 291t151.5 230t230.5 151.5t291 54.5t291 -54.5t230 -151.5t151.5 -230t54.5 -291t-54.5 -291t-151.5 -230.5t-230 -151.5t-291 -54t-291 54t-230.5 151.5t-151.5 230.5t-54 291zM164 676q0 -141 47 -260t133 -205t205 -133t260 -47t260 47t205 133 t133 205t47 260t-47 260t-133 205t-205 133t-260 47t-260 -47t-205 -133t-133 -205t-47 -260zM432 1104v26h344q43 0 99.5 -7t108.5 -32.5t88 -73.5t36 -128q0 -55 -19.5 -94t-50 -64.5t-68.5 -40t-73 -20.5l147 -238q51 -82 88 -113.5t87 -37.5v-25q-23 -14 -86 -14 q-33 0 -59.5 9t-53.5 31.5t-54.5 59.5t-60.5 90l-137 230h-98v-406h-119v715q0 59 -16.5 96t-75.5 37h-27zM670 721q20 -4 47.5 -9t52.5 -5q27 0 62.5 10t67.5 33.5t53.5 59.5t21.5 87t-21.5 87t-53.5 58.5t-67.5 32.5t-62.5 10q-25 0 -52.5 -5t-47.5 -9v-350z" />
<glyph unicode="&#xb4;" horiz-adv-x="358" d="M41 1434l82 266h194l-194 -266h-82z" />
<glyph unicode="&#xb8;" horiz-adv-x="368" d="M82 -317h102q82 0 82 65q0 68 -82 68h-92v184h92v-102h21q70 0 117 -38t47 -112q0 -72 -47.5 -110.5t-116.5 -38.5h-123v84z" />
<glyph unicode="&#xbb;" horiz-adv-x="761" d="M117 164l123 297l-123 297h82l204 -297l-204 -297h-82zM291 61l194 400l-194 399h82l317 -399l-317 -400h-82z" />
<glyph unicode="&#x2c6;" horiz-adv-x="634" d="M41 1352l164 235h225l164 -235h-102l-175 164l-174 -164h-102z" />
<glyph unicode="&#x2da;" horiz-adv-x="348" d="M0 1260q0 35 14.5 66.5t38 55t55 38t66.5 14.5t66.5 -14.5t55 -38t38 -55.5t14.5 -66q0 -35 -14.5 -67t-38 -55.5t-55 -38t-66.5 -14.5t-66.5 14.5t-55 38t-38 55.5t-14.5 67zM82 1260q0 -47 26.5 -75t65.5 -28t65.5 28t26.5 75t-26.5 74.5t-65.5 27.5t-65.5 -27.5 t-26.5 -74.5z" />
<glyph unicode="&#x2dc;" horiz-adv-x="542" d="M41 1393q0 109 30.5 151.5t92.5 42.5q33 0 59.5 -13t51 -28.5t49 -28t55.5 -12.5q23 0 42 30t19 52h62q0 -109 -31 -151.5t-92 -42.5q-33 0 -58.5 12t-50 27.5t-50 29t-56.5 13.5q-23 0 -42.5 -30t-19.5 -52h-61z" />
<glyph unicode="&#x401;" horiz-adv-x="1208" d="M33 1311v41h872q53 0 87 -15q34 -14 54 -37q19 -23 26 -52q7 -30 7 -60v-154h-41q0 123 -66 179q-67 56 -190 57h-381v-533h553v-82h-553v-573h359q139 0 220 51t128 174l41 -10l-72 -195q-16 -47 -54 -74q-38 -28 -99 -28h-707v1106q0 92 -26 148t-117 57h-41zM317 1597 q0 47 28 75t75 28t75 -28q27 -28 27 -75t-27 -74q-28 -28 -75 -28t-75 28t-28 74zM666 1597q0 47 27 75q28 28 75 28t75 -28q27 -28 27 -75t-27 -74q-28 -28 -75 -28t-75 28t-27 74z" />
<glyph unicode="&#x402;" horiz-adv-x="1277" d="M-2 1270v82h717v-82h-266v-471q47 31 143 56.5t205 25.5q80 0 154.5 -17.5t131 -69t90 -143.5t33.5 -241q0 -135 -17.5 -228.5t-60.5 -152t-116.5 -85t-184.5 -26.5v41q195 0 195 451q0 115 -23.5 188.5t-62.5 115.5t-91 58t-110 16q-78 0 -158.5 -25.5t-127.5 -55.5 v-707h-185v1270h-266z" />
<glyph unicode="&#x403;" horiz-adv-x="1099" d="M33 1311v41h850q53 0 87 -14.5t53 -37t26.5 -52t7.5 -60.5v-154h-41q0 123 -66.5 179.5t-189.5 56.5h-359v-1270h-184v1106q0 92 -25.5 148.5t-117.5 56.5h-41zM483 1434l144 235h174l-215 -235h-103z" />
<glyph unicode="&#x404;" horiz-adv-x="1361" d="M90 655q0 154 50 288t136 234.5t202 158t247 57.5q170 0 293 -48.5t178 -115.5q39 -47 45 -131t6 -176h-41q-39 201 -144.5 295t-275.5 94q-96 0 -181 -31t-151.5 -101.5t-108.5 -183t-50 -278.5h678v-82h-678q4 -111 33.5 -218.5t89 -190.5t150.5 -134t218 -51 q154 0 264.5 73.5t196.5 213.5l41 -31q-49 -96 -109.5 -160.5t-130 -104.5t-150.5 -56.5t-173 -16.5q-145 0 -263 54.5t-201 148.5t-127 221t-44 272z" />
<glyph unicode="&#x405;" horiz-adv-x="1091" d="M111 215v219h36q35 -207 137 -297q101 -90 275 -90q53 0 101 13t85 40t60 66t22 90q0 90 -56 154q-56 63 -169 129l-252 149q-131 78 -185 158t-54 194q0 80 28 144q29 63 81 109t125 71t163 25q76 0 155 -17q79 -16 142 -48t104 -78t41 -103v-219h-37q-35 207 -133 295 t-272 88q-45 0 -88 -15q-43 -14 -76 -41t-53 -65q-20 -39 -21 -86q0 -45 15 -80q14 -35 43 -66t71 -60q43 -30 99 -63l252 -149q66 -39 113 -75q48 -36 79 -76t46 -85q16 -45 16 -102q0 -86 -30 -156t-85 -119q-55 -50 -134 -77t-177 -27q-84 0 -167 18q-83 17 -150 50 t-108 79q-42 46 -42 103z" />
<glyph unicode="&#x406;" horiz-adv-x="583" d="M182 246v1106h185v-1106q0 -92 25 -149q26 -56 118 -56h41v-41h-184q-53 0 -89 9t-58 37t-30 75t-8 125z" />
<glyph unicode="&#x407;" horiz-adv-x="583" d="M14 1567q0 47 28 74q28 28 75 28t74 -28q28 -27 28 -74t-28 -75t-74 -28q-47 0 -75 28t-28 75zM182 246v1106h185v-1106q0 -92 25 -149q26 -56 118 -56h41v-41h-184q-53 0 -89 9t-58 37t-30 75t-8 125zM330 1567q0 47 27 74q28 28 75 28t75 -28q28 -27 28 -74t-28 -75 t-75 -28t-75 28t-27 75z" />
<glyph unicode="&#x408;" horiz-adv-x="534" d="M-18 -240q100 0 147 107q47 106 47 293v1192h184v-1192q0 -115 -17 -199t-60 -137t-117 -79t-184 -26v41z" />
<glyph unicode="&#x409;" horiz-adv-x="1974" d="M-12 -2v51q45 2 88 19.5t80 60.5t68.5 116.5t53 189.5t35 281t13.5 390q0 92 -26 148.5t-118 56.5h-20v41h993v-574h225q88 0 184.5 -14t176.5 -57t131 -119t51 -199t-51 -198.5t-131 -118.5t-176.5 -57.5t-184.5 -14.5h-409v1270h-492v-164q0 -350 -31.5 -569.5 t-86 -343t-125 -168.5t-146.5 -45q-23 0 -51.5 5t-50.5 13zM1155 102q47 -16 97.5 -23t97.5 -7q172 0 270 77.5t98 239.5t-98 240t-270 78q-47 0 -97.5 -7.5t-97.5 -23.5v-574z" />
<glyph unicode="&#x40a;" horiz-adv-x="1994" d="M33 1311v41h184q53 0 89 -9.5t57.5 -37t29.5 -75.5t8 -124v-369h594v615h185v-615h225q88 0 184.5 -14t176 -54t131 -113t51.5 -187q0 -115 -51.5 -187.5t-131 -112.5t-176 -54.5t-184.5 -14.5h-410v655h-594v-655h-184v1106q0 92 -25.5 148.5t-117.5 56.5h-41zM1180 102 q47 -16 97 -23t97 -7q170 0 269.5 75t99.5 222t-99.5 222t-269.5 75q-47 0 -97 -7.5t-97 -23.5v-533z" />
<glyph unicode="&#x40b;" horiz-adv-x="1296" d="M-2 1270v82h717v-82h-266v-471q47 31 143 56.5t205 25.5q80 0 154.5 -15.5t131 -57.5t90 -113.5t33.5 -182.5v-512h-184v512q0 76 -23.5 129t-62.5 86t-91 47t-110 14q-78 0 -158.5 -25.5t-127.5 -55.5v-707h-185v1270h-266z" />
<glyph unicode="&#x40c;" horiz-adv-x="1386" d="M33 1311v41h184q53 0 89 -9.5t57.5 -37t29.5 -75.5t8 -124v-399l430 430q39 39 75 76.5t76 68.5t88 50.5t110 19.5h102v-52q-84 0 -148.5 -29.5t-148.5 -113.5l-399 -399l471 -492q43 -43 88 -82t89 -69.5t88 -50t83 -25.5v-39q-23 -8 -54.5 -14t-78.5 -6q-43 0 -89 9 t-100.5 36.5t-116 74.5t-135.5 125l-430 451v-676h-184v1106q0 92 -25.5 148.5t-117.5 56.5h-41zM565 1382l144 236h174l-215 -236h-103z" />
<glyph unicode="&#x40e;" horiz-adv-x="1243" d="M-57 1311v41h245q49 0 87 -20q38 -19 67 -51t51 -72q23 -40 41 -83l277 -614l368 840h123l-504 -1157q-43 -100 -123 -158q-80 -57 -202 -57h-103v61q45 0 92 7t90 24q42 16 74 46q33 30 52 77l20 51l-379 839q-18 43 -39 82q-20 39 -50 70t-74 50t-113 24zM444 1618 l41 31q31 -39 85 -66q55 -27 141 -27t140 27t85 66l41 -31q-39 -86 -103 -135q-63 -49 -163 -49t-164 49q-63 49 -103 135z" />
<glyph unicode="&#x40f;" horiz-adv-x="1376" d="M33 1311v41h184q53 0 89 -9.5t57.5 -37t29.5 -75.5t8 -124v-1024h615v1270h184v-1352h-409l-31 -358h-103l-30 358h-410v1106q0 92 -25.5 148.5t-117.5 56.5h-41z" />
<glyph unicode="&#x410;" horiz-adv-x="1300" d="M45 0l573 1352h62l450 -1096q25 -57 47 -97t48 -65q27 -25 57 -37q31 -12 74 -16v-41q-35 -10 -82 -10q-35 0 -81 8t-94 36t-94 81t-79 141l-52 133h-573l-164 -389h-92zM332 471h502l-246 594z" />
<glyph unicode="&#x411;" horiz-adv-x="1245" d="M33 1311v41h862q53 0 87 -14.5t53.5 -37t26.5 -52t7 -60.5v-154h-41q0 123 -66.5 179.5t-189.5 56.5h-371v-492h226q88 0 184 -14t176 -57t131 -119t51 -199t-51 -198.5t-131 -118.5t-176 -57.5t-184 -14.5h-410v1106q0 92 -25.5 148.5t-117.5 56.5h-41zM401 100 q47 -14 97.5 -21t97.5 -7q170 0 269.5 77.5t99.5 239.5t-99.5 240t-269.5 78q-47 0 -97 -7.5t-98 -21.5v-578z" />
<glyph unicode="&#x412;" horiz-adv-x="1273" d="M33 1311v41h532q80 0 177 -12q97 -11 181 -49q83 -38 139 -108q56 -71 56 -190q0 -92 -63 -171t-203 -126q100 -16 165 -46t103 -71q39 -42 55 -96q15 -53 15 -114q0 -115 -52 -188t-133 -112q-81 -40 -182 -55q-100 -14 -196 -14h-410v1106q0 92 -26 148t-117 57h-41z M401 100q47 -14 98 -21q50 -7 97 -7q186 0 288 73q101 74 101 213t-98 213t-291 74h-195v-545zM401 727h195q61 0 120 17q58 17 104 53q46 35 75 86t29 121q0 74 -35 125q-35 52 -88 86t-119 50q-66 15 -127 15q-39 0 -81 -6t-73 -14v-533z" />
<glyph unicode="&#x413;" horiz-adv-x="1099" d="M33 1311v41h850q53 0 87 -14.5t53 -37t26.5 -52t7.5 -60.5v-154h-41q0 123 -66.5 179.5t-189.5 56.5h-359v-1270h-184v1106q0 92 -25.5 148.5t-117.5 56.5h-41z" />
<glyph unicode="&#x414;" horiz-adv-x="1406" d="M6 10q0 31 20.5 51.5t51.5 20.5h82q100 217 137 474t37 550q0 92 -25.5 148.5t-118.5 56.5h-30v41h1024v-1270h112q31 0 51.5 -20.5t20.5 -51.5v-379h-92q-12 104 -32.5 175t-52.5 114t-75 61.5t-96 18.5h-666q-53 0 -96 -18.5t-74.5 -61.5t-52 -113.5t-33.5 -175.5h-92 v379zM303 82h696v1188h-532q0 -207 -8 -380t-27.5 -317.5t-51.5 -265.5t-77 -225z" />
<glyph unicode="&#x415;" horiz-adv-x="1208" d="M33 1311v41h872q53 0 87 -15q34 -14 54 -37q19 -23 26 -52q7 -30 7 -60v-154h-41q0 123 -66 179q-67 56 -190 57h-381v-533h553v-82h-553v-573h359q139 0 220 51t128 174l41 -10l-72 -195q-16 -47 -54 -74q-38 -28 -99 -28h-707v1106q0 92 -26 148t-117 57h-41z" />
<glyph unicode="&#x416;" horiz-adv-x="1943" d="M-18 0v39q35 4 76.5 23.5t85.5 49t86 69.5t79 85l389 492l-317 399q-70 88 -138.5 115.5t-138.5 27.5v52h103q53 0 98 -17.5t85 -47.5t75 -68.5t70 -81.5l348 -430v645h178v-645l348 430q33 43 68.5 81.5t75.5 68.5t85 47.5t99 17.5h102v-52q-70 0 -138.5 -27.5 t-137.5 -115.5l-318 -399l389 -492q37 -45 79 -85t86 -69.5t86 -49t77 -23.5v-39q-23 -8 -54.5 -14t-78.5 -6q-35 0 -82 9t-101.5 34.5t-115 73.5t-121.5 128l-348 451v-676h-178v676l-348 -451q-61 -80 -122 -128t-115 -73.5t-101 -34.5t-82 -9q-47 0 -79 6t-54 14z" />
<glyph unicode="&#x417;" horiz-adv-x="1167" d="M61 215l41 31q70 -92 171.5 -148.5t248.5 -56.5q162 0 260.5 78t98.5 219q0 147 -98.5 227t-290.5 80h-154v82h154q70 0 132 19.5t110 56.5t77 92t29 129t-27 127t-70 89t-98 53.5t-113 17.5q-147 0 -248.5 -87t-140.5 -241h-41q0 92 6.5 155.5t45.5 110.5 q27 33 70.5 59.5t97 45t110.5 29t111 10.5q76 0 163 -13.5t159.5 -53.5t120.5 -114.5t48 -197.5q0 -100 -69.5 -185.5t-216.5 -132.5q96 -18 160.5 -51t104.5 -77t56 -100t16 -120q0 -119 -51 -194.5t-130 -118.5t-173 -59.5t-178 -16.5q-154 0 -276.5 55.5t-215.5 200.5z " />
<glyph unicode="&#x418;" horiz-adv-x="1417" d="M33 1311v41h184q53 0 89 -9.5t57.5 -37t29.5 -75.5t8 -124v-922l656 1168h184v-1352h-184v1167l-656 -1167h-184v1106q0 92 -25.5 148.5t-117.5 56.5h-41z" />
<glyph unicode="&#x419;" horiz-adv-x="1417" d="M33 1311v41h184q53 0 89 -10q36 -9 58 -36q22 -28 29 -76q8 -48 8 -124v-922l656 1168h184v-1352h-184v1167l-656 -1167h-184v1106q0 92 -26 148t-117 57h-41zM463 1638l41 31q31 -39 85 -65q54 -27 140 -27t140 27t85 65l41 -31q-39 -86 -102 -135t-164 -49 q-100 0 -164 49q-63 49 -102 135z" />
<glyph unicode="&#x41a;" horiz-adv-x="1386" d="M33 1311v41h184q53 0 89 -10q36 -9 58 -36q22 -28 29 -76q8 -48 8 -124v-399l430 430q39 39 75 76q36 38 76 69t88 50t110 20h102v-52q-84 0 -148 -29q-65 -30 -149 -114l-399 -399l471 -492q84 -88 177 -152q93 -65 171 -75v-39q-23 -8 -54 -14q-32 -6 -79 -6 q-43 0 -89 9t-101 37q-54 28 -115 74q-61 47 -136 125l-430 451v-676h-184v1106q0 92 -26 148t-117 57h-41z" />
<glyph unicode="&#x41b;" horiz-adv-x="1351" d="M-12 -2v51q45 2 88 19.5t80 60.5t68.5 116.5t53 189.5t35 281t13.5 390q0 92 -26 148.5t-118 56.5h-20v41h1014v-1352h-185v1270h-512v-164q0 -350 -31.5 -569.5t-86 -343t-125 -168.5t-146.5 -45q-23 0 -51.5 5t-50.5 13z" />
<glyph unicode="&#x41c;" horiz-adv-x="1751" d="M176 0v1352h195l491 -1065l481 1065h185v-1004q0 -186 47 -293q47 -106 147 -106v-41q-111 0 -184 25q-74 26 -117 79t-60 138q-17 84 -18 198v789l-512 -1137h-40l-533 1157v-1157h-82z" />
<glyph unicode="&#x41d;" horiz-adv-x="1419" d="M33 1311v41h184q53 0 89 -10q36 -9 58 -36q22 -28 29 -76q8 -48 8 -124v-369h615v615h184v-1106q0 -92 26 -149q26 -56 117 -56h41v-41h-184q-53 0 -89 9t-57 37q-22 28 -30 75t-8 125v409h-615v-655h-184v1106q0 92 -26 148t-117 57h-41z" />
<glyph unicode="&#x41e;" horiz-adv-x="1458" d="M94 676q0 150 44 280q44 131 127 229q83 97 201 152t263 56q145 0 263 -56q118 -55 201 -152t127 -229q44 -131 44 -280q0 -152 -44 -282t-127 -227t-201 -153q-118 -55 -263 -55t-263 55t-201 153q-83 97 -127 227t-44 282zM299 676q0 -145 30 -263t85 -201t135 -127 t180 -44t180 44t135 127t85 201t30 263t-30 263t-85 201t-135 127t-180 44t-180 -44t-135 -127t-85 -201t-30 -263z" />
<glyph unicode="&#x41f;" horiz-adv-x="1376" d="M33 1311v41h1167v-1352h-184v1270h-615v-1270h-184v1106q0 92 -25.5 148.5t-117.5 56.5h-41z" />
<glyph unicode="&#x420;" horiz-adv-x="1130" d="M33 1311v41h532q66 0 154 -13q88 -12 168 -54t135 -124t55 -219q0 -88 -25 -150q-26 -62 -67 -106q-41 -43 -91 -70t-100 -39q-50 -13 -95 -19q-44 -5 -72 -5h-226v-553h-184v1106q0 92 -26 148t-117 57h-41zM401 645q31 -8 73 -14t81 -6q43 0 97 16t104 55q49 39 83 102 q34 62 33 154q0 92 -33 155q-34 62 -83 101t-104 56q-54 16 -97 16q-39 0 -81 -6t-73 -14v-615z" />
<glyph unicode="&#x421;" horiz-adv-x="1361" d="M90 655q0 154 50 288t136 235q86 100 202 157t247 58q170 0 293 -48t178 -116q39 -47 45 -131t6 -176h-41q-39 201 -144 295t-276 94q-100 0 -189 -34t-157 -111t-106 -201q-39 -125 -39 -310q0 -115 28 -225q28 -111 87 -197t152 -139t224 -53q154 0 265 74t196 213 l41 -31q-49 -96 -109 -161t-130 -104q-70 -40 -151 -57q-81 -16 -173 -16q-145 0 -263 54t-201 149q-83 94 -127 221t-44 272z" />
<glyph unicode="&#x422;" horiz-adv-x="1193" d="M43 1034v154q0 31 7 60q7 30 27 52q19 23 53 37t87 15h952v-82h-460v-1270h-185v1270h-184q-123 0 -189 -57q-67 -56 -67 -179h-41z" />
<glyph unicode="&#x423;" horiz-adv-x="1243" d="M-57 1311v41h245q49 0 87 -19.5t67 -51.5t51.5 -72t40.5 -83l277 -614l368 840h123l-504 -1157q-43 -100 -122.5 -157.5t-202.5 -57.5h-103v61q45 0 92.5 7t89.5 23.5t74.5 46t51.5 77.5l20 51l-379 839q-18 43 -38.5 82t-50.5 70t-74 50.5t-113 23.5z" />
<glyph unicode="&#x424;" horiz-adv-x="1597" d="M72 645q0 131 39 236.5t117.5 180.5t197.5 116t281 41v10q0 78 -33 110.5t-111 32.5h-41v41h185q106 0 145 -39t39 -145v-10q162 0 280.5 -41t197.5 -116t118 -180.5t39 -236.5t-39 -236.5t-118 -180t-197.5 -115.5t-280.5 -41v-133h-184v133q-162 0 -281 41 t-197.5 115.5t-117.5 180t-39 236.5zM276 645q0 -100 21.5 -189t71 -157t132.5 -106.5t206 -38.5v983q-123 0 -206 -39t-132.5 -106.5t-71 -157t-21.5 -189.5zM891 154q123 0 206 38.5t132 106.5t70.5 157t21.5 189t-21.5 189.5t-70.5 157t-132 106.5t-206 39v-983z" />
<glyph unicode="&#x425;" horiz-adv-x="1366" d="M-18 1311v41h245q49 0 91 -21q42 -20 77 -53t64 -73t55 -79l205 -307l409 533h103l-461 -604l328 -482q27 -39 57 -77q31 -38 68 -69q37 -32 80 -53q43 -22 92 -26v-41h-215q-49 0 -91 20t-77 54q-35 33 -65 72q-30 40 -54 79l-246 369l-461 -594h-102l512 666l-287 419 q-27 39 -55 77q-29 38 -66 70t-87 53q-50 22 -119 26z" />
<glyph unicode="&#x426;" horiz-adv-x="1423" d="M33 1311v41h184q53 0 89 -9.5t57.5 -37t29.5 -75.5t8 -124v-1024h615v1270h184v-1270h113q31 0 51 -20.5t20 -51.5v-379h-92q-12 104 -32.5 175t-52 114t-74.5 61.5t-97 18.5h-819v1106q0 92 -25.5 148.5t-117.5 56.5h-41z" />
<glyph unicode="&#x427;" horiz-adv-x="1310" d="M8 1311v41h185q53 0 88.5 -9.5t57 -37t30 -75.5t8.5 -124v-184q0 -100 19.5 -164t57.5 -100.5t95 -50t135 -13.5q61 0 137 9t129 32v717h185v-1352h-185v553q-27 -12 -61.5 -19.5t-72.5 -12.5t-74.5 -7t-67.5 -2q-104 0 -195.5 15.5t-159 61.5t-107.5 130t-40 223v164 q0 92 -25.5 148.5t-117.5 56.5h-21z" />
<glyph unicode="&#x428;" horiz-adv-x="1908" d="M33 1311v41h184q53 0 89 -9.5t57.5 -37t29.5 -75.5t8 -124v-1024h482v1270h184v-1270h481v1270h185v-1352h-1516v1106q0 92 -25.5 148.5t-117.5 56.5h-41z" />
<glyph unicode="&#x429;" horiz-adv-x="1955" d="M33 1311v41h184q53 0 89 -9.5t57.5 -37t29.5 -75.5t8 -124v-1024h482v1270h184v-1270h481v1270h185v-1270h112q31 0 51.5 -20.5t20.5 -51.5v-379h-92q-12 104 -32.5 175t-52.5 114t-75 61.5t-96 18.5h-1352v1106q0 92 -25.5 148.5t-117.5 56.5h-41z" />
<glyph unicode="&#x42a;" horiz-adv-x="1441" d="M59 963v317q0 31 20.5 51.5t51.5 20.5h492v-574h225q88 0 184 -14t176 -57t131.5 -119t51.5 -199t-51.5 -198.5t-131.5 -118.5t-176 -57.5t-184 -14.5h-410v1270h-61q-66 0 -113 -15.5t-77.5 -50.5t-46 -94t-19.5 -147h-62zM623 100q47 -14 97 -21t97 -7 q170 0 269.5 77.5t99.5 239.5t-99.5 240t-269.5 78q-47 0 -97 -7.5t-97 -21.5v-578z" />
<glyph unicode="&#x42b;" horiz-adv-x="1703" d="M33 1311v41h184q53 0 89 -9.5t57.5 -37t29.5 -75.5t8 -124v-328h226q76 0 166 -14t166.5 -57t128 -119t51.5 -199t-51.5 -198.5t-128 -118.5t-167 -57.5t-165.5 -14.5h-410v1106q0 92 -25.5 148.5t-117.5 56.5h-41zM401 100q47 -14 97.5 -21t97.5 -7q74 0 135.5 19.5 t106.5 58t70.5 99t25.5 140.5t-25.5 140.5t-70.5 99.5t-106.5 58.5t-135.5 19.5q-47 0 -97 -7.5t-98 -21.5v-578zM1303 246v1106h184v-1106q0 -92 25.5 -148.5t117.5 -56.5h41v-41h-184q-53 0 -89 9t-57.5 37t-29.5 75t-8 125z" />
<glyph unicode="&#x42c;" horiz-adv-x="1220" d="M33 1311v41h184q53 0 89 -9.5t57.5 -37t29.5 -75.5t8 -124v-328h226q88 0 184 -14t176 -57t131 -119t51 -199t-51 -198.5t-131 -118.5t-176 -57.5t-184 -14.5h-410v1106q0 92 -25.5 148.5t-117.5 56.5h-41zM401 100q47 -14 97.5 -21t97.5 -7q170 0 269.5 77.5t99.5 239.5 t-99.5 240t-269.5 78q-47 0 -97 -7.5t-98 -21.5v-578z" />
<glyph unicode="&#x42d;" horiz-adv-x="1361" d="M72 297l41 31q86 -139 196.5 -213t263.5 -74q127 0 218.5 51t150.5 134t89 190.5t34 218.5h-678v82h678q-8 166 -50 278.5t-108.5 183t-152.5 101.5t-181 31q-170 0 -275 -94.5t-144 -294.5h-41q0 92 6 176t45 131q55 68 178 116t293 48q131 0 246.5 -57.5t201.5 -158 t136.5 -234.5t50.5 -288q0 -145 -44 -272t-127 -221t-201 -148.5t-263 -54.5q-92 0 -173 16.5t-150.5 56.5t-130 104.5t-109.5 160.5z" />
<glyph unicode="&#x42e;" horiz-adv-x="1787" d="M33 1311v41h184q53 0 89 -9.5t57.5 -37t29.5 -75.5t8 -124v-369h146q10 150 57 270.5t122 206.5t175 132.5t217 46.5q123 0 227.5 -51.5t181.5 -145.5t121 -226t44 -294t-44 -294t-121 -226.5t-181.5 -145.5t-227.5 -51q-121 0 -224 50t-180 141.5t-121 219.5t-48 285 h-144v-655h-184v1106q0 92 -25.5 148.5t-117.5 56.5h-41zM750 676q0 -154 28.5 -272.5t78.5 -198.5t116.5 -122t144.5 -42q76 0 143.5 42t118 122t79 198.5t28.5 272.5t-28.5 272.5t-79 198.5t-118 122t-143.5 42q-78 0 -144.5 -42t-116.5 -122t-78.5 -199t-28.5 -272z" />
<glyph unicode="&#x42f;" horiz-adv-x="1245" d="M29 2v39q78 8 131 51t94 113l215 368q-49 12 -102.5 37t-96.5 68t-70.5 107.5t-27.5 156.5q0 137 55.5 219t135 124t167.5 54.5t154 12.5h512v-41h-20q-92 0 -118 -56.5t-26 -148.5v-1106h-184v553h-199l-215 -389q-59 -109 -125.5 -146.5t-156.5 -37.5q-31 0 -66 7 t-57 15zM377 952q0 -92 33.5 -154.5t83 -101.5t103.5 -55t97 -16q39 0 81 6t73 14v615q-31 8 -73 14t-81 6q-43 0 -97 -16.5t-103.5 -55.5t-83 -101.5t-33.5 -154.5z" />
<glyph unicode="&#x430;" horiz-adv-x="985" d="M80 266q0 84 43 140q43 55 115 88t165 46q94 13 199 13h62q0 106 -17 175q-16 69 -45 107t-68 52q-40 14 -85 14q-86 0 -145 -37q-58 -37 -81 -137h-92q0 53 6 99t45 85q18 18 52 33q34 14 75 23q41 8 87 12t93 4q70 0 135 -15t114 -62q50 -46 80 -131t30 -222v-553h-103 l-71 92h-10q-31 -39 -101 -76t-186 -36q-43 0 -94 13t-97 46q-45 33 -75 88q-31 55 -31 139zM274 266q0 -49 17 -86q16 -37 43 -61q27 -25 61 -36q35 -11 74 -11q76 0 120 38t75 85v276h-62q-154 0 -241 -56t-87 -149z" />
<glyph unicode="&#x431;" horiz-adv-x="1081" d="M123 471v82q0 188 16.5 310t51 197t92 112.5t137.5 56.5l307 71q70 16 107.5 35t46.5 58h41v-133q0 -78 -62 -93l-358 -82q-66 -16 -116 -43.5t-86 -80t-56.5 -136.5t-28.5 -211h10q39 154 127 220.5t242 66.5q76 0 146.5 -27.5t125 -84t86 -143.5t31.5 -206t-32.5 -206 t-90 -143t-136.5 -83.5t-171 -27.5t-171 27.5t-136.5 87t-90 152.5t-32.5 224zM317 440q0 -111 19.5 -184.5t52.5 -116.5t75 -60.5t89 -17.5q45 0 88 17.5t76 60.5t52 117t19 184q0 106 -19 179t-52 118t-76 63.5t-88 18.5q-47 0 -89 -18.5t-75 -63.5t-52.5 -117.5 t-19.5 -179.5z" />
<glyph unicode="&#x432;" horiz-adv-x="1026" d="M4 922v41h502q76 0 146.5 -12.5t124.5 -41t86 -76t32 -116.5q0 -86 -48 -139.5t-157 -75.5q117 -23 181.5 -83.5t64.5 -152.5q0 -78 -33 -129t-90 -81.5t-136 -43t-171 -12.5h-338v717q0 92 -25.5 148.5t-117.5 56.5h-21zM352 92q23 -8 63 -14t70 -6q123 0 189.5 47 t66.5 147q0 195 -276 195h-113v-369zM352 543h113q109 0 172 44t63 130t-61 130t-154 44q-31 0 -70.5 -6t-62.5 -15v-327z" />
<glyph unicode="&#x433;" horiz-adv-x="890" d="M4 922v41h676q45 0 75.5 -14.5t47 -37t24 -52.5t7.5 -60v-123h-41q0 100 -61.5 152.5t-153.5 52.5h-226v-881h-184v717q0 92 -25.5 148.5t-117.5 56.5h-21z" />
<glyph unicode="&#x434;" horiz-adv-x="1167" d="M33 10q0 31 20.5 51.5t50.5 20.5h62q35 76 58.5 159t37.5 165.5t20.5 161.5t6.5 149q0 92 -25.5 148.5t-118.5 56.5v41h820v-881h82q31 0 51 -20.5t20 -51.5v-327h-82q-16 170 -65 243.5t-150 73.5h-491q-100 0 -149.5 -73.5t-65.5 -243.5h-82v327zM309 82h471v799h-358 q0 -262 -25.5 -453.5t-87.5 -345.5z" />
<glyph unicode="&#x435;" horiz-adv-x="999" d="M92 481q0 104 28 196q28 91 81 159t129 107q76 40 172 40q209 0 309 -117t100 -334l-4 -81h-620q0 -84 18 -156t54 -124t87 -81t117 -29q100 0 167 43t120 121l41 -30q-70 -117 -161 -166t-208 -49q-109 0 -188 39q-80 40 -134 108t-81 159t-27 195zM287 532h430 q0 178 -53 274q-53 95 -162 95q-47 0 -86 -28t-68 -76q-29 -49 -45 -117t-16 -148z" />
<glyph unicode="&#x436;" horiz-adv-x="1404" d="M16 0v39q70 10 126.5 50t109.5 116l215 297l-195 317q-29 47 -81 69.5t-113 22.5v52h51q100 0 163.5 -35t102.5 -99l215 -358v492h185v-492l215 358q39 63 102.5 98.5t163.5 35.5h51v-52q-61 0 -113.5 -22.5t-80.5 -69.5l-195 -317l215 -297q53 -76 109.5 -116t126.5 -50 v-39q-16 -8 -44 -14t-59 -6q-78 0 -146.5 38.5t-129.5 124.5l-215 297v-440h-185v440l-215 -297q-61 -86 -129.5 -124.5t-146.5 -38.5q-31 0 -58.5 6t-44.5 14z" />
<glyph unicode="&#x437;" horiz-adv-x="931" d="M74 143l41 31q18 -18 42.5 -38.5t57.5 -37t76 -27t100 -10.5q123 0 189.5 47.5t66.5 147.5q0 195 -287 195h-92v81h92q123 0 189.5 46.5t66.5 138.5t-59 138t-145 46q-111 0 -185.5 -57.5t-81.5 -157.5h-41q0 86 6.5 136t45.5 89t112.5 55.5t173.5 16.5q70 0 135.5 -13.5 t118 -44t84 -81.5t31.5 -127q0 -92 -56.5 -147.5t-148.5 -77.5q111 -23 173.5 -83.5t62.5 -152.5q0 -80 -33 -133t-88 -85t-130 -45t-159 -13q-70 0 -124 12t-97 34.5t-77 52.5t-60 64z" />
<glyph unicode="&#x438;" horiz-adv-x="1122" d="M2 922v41h174q53 0 89 -9.5t57.5 -37t29.5 -75.5t8 -124v-533l431 779h184v-963h-184v778l-431 -778h-184v717q0 92 -25.5 148.5t-117.5 56.5h-31z" />
<glyph unicode="&#x439;" horiz-adv-x="1122" d="M2 922v41h174q53 0 89 -10q36 -9 58 -37t29 -75q8 -48 8 -124v-533l431 779h184v-963h-184v778l-431 -778h-184v717q0 92 -25 148q-26 56 -118 57h-31zM309 1231l41 31q39 -39 89 -61q50 -21 136 -21t137 21q50 22 89 61l41 -31q-39 -70 -103 -117q-63 -47 -164 -47 q-100 0 -163 47t-103 117z" />
<glyph unicode="&#x43a;" horiz-adv-x="1017" d="M-2 922v41h184q53 0 89 -9.5t57.5 -37t30 -75.5t8.5 -124v-246l256 358q45 61 105 97.5t161 36.5h51v-52q-47 0 -96 -19.5t-88 -72.5l-226 -317l236 -297q53 -70 109.5 -113t125.5 -53v-39q-16 -8 -43.5 -14t-58.5 -6q-78 0 -152.5 38.5t-144.5 124.5l-235 297v-440h-185 v717q0 92 -25.5 148.5t-117.5 56.5h-41z" />
<glyph unicode="&#x43b;" horiz-adv-x="1118" d="M18 -2v51q49 0 97.5 25.5t86.5 97.5t60.5 203t22.5 342q0 45 -5.5 83t-20.5 65.5t-44 42t-76 14.5v41h832v-963h-185v881h-360v-164q0 -231 -26.5 -374.5t-69.5 -224.5t-98.5 -109.5t-112.5 -28.5q-16 0 -50 6t-51 12z" />
<glyph unicode="&#x43c;" horiz-adv-x="1329" d="M147 0v963h195l307 -676l307 676h185v-656q0 -57 11 -112.5t30.5 -98.5t48.5 -69.5t63 -26.5v-41q-96 0 -160.5 24.5t-104.5 69.5t-56.5 109.5t-16.5 144.5v441l-338 -748h-40l-349 768v-768h-82z" />
<glyph unicode="&#x43d;" horiz-adv-x="1132" d="M2 922v41h174q53 0 89 -9.5t57.5 -37t29.5 -75.5t8 -124v-195h410v441h184v-717q0 -92 26 -148.5t118 -56.5h30v-41h-174q-53 0 -89 9t-57.5 37t-29.5 75t-8 125v194h-410v-440h-184v717q0 92 -25.5 148.5t-117.5 56.5h-31z" />
<glyph unicode="&#x43e;" d="M92 481q0 104 30 196q30 91 88 159t141 107q83 40 192 40q106 0 190 -40t143 -107q58 -68 88 -159t29 -196q0 -104 -29 -195q-30 -91 -88 -159t-143 -108q-84 -40 -190 -39q-109 0 -192 39q-83 40 -141 108t-88 159t-30 195zM287 481q0 -88 18 -165t52 -133t81 -89 t105 -33q57 0 104 33t81 89t52 133q19 77 19 165t-19 165q-18 77 -52 133t-81 89t-104 33t-105 -33q-47 -33 -81 -89t-52 -133t-18 -165z" />
<glyph unicode="&#x43f;" horiz-adv-x="1093" d="M4 922v41h942v-963h-184v881h-410v-881h-184v717q0 92 -25.5 148.5t-117.5 56.5h-21z" />
<glyph unicode="&#x440;" horiz-adv-x="1101" d="M-6 922v41h184q78 0 118 -23t56 -70h10q31 39 97 76t180 37q92 0 161 -40t114 -107q46 -68 70 -159t24 -196q0 -104 -24 -195t-72 -159t-120 -108q-73 -40 -174 -39q-86 0 -147 19t-109 42v-430h-184v1106q0 92 -25 148q-26 56 -118 57h-41zM362 123q47 -23 98 -42 q50 -19 97 -20q70 0 118 33t79 89t45 133t14 165t-13 165t-43 133t-74 89t-105 33q-43 0 -76 -10t-59 -28q-26 -17 -46 -40t-35 -45v-655z" />
<glyph unicode="&#x441;" horiz-adv-x="989" d="M92 481q0 104 28 196q28 91 83 159t140 107q85 40 200 40q109 0 183 -16q75 -16 114 -56q18 -18 29 -41t16 -53q4 -31 5 -73t1 -99h-41q-8 131 -83 194q-75 62 -183 62q-78 0 -133 -33t-93 -89q-37 -56 -54 -133t-17 -165t17 -165t54 -133t93 -89q55 -33 133 -33 q109 0 176 43q68 43 121 121l41 -30q-70 -117 -163 -166t-216 -49q-115 0 -200 39q-85 40 -140 108t-83 159t-28 195z" />
<glyph unicode="&#x442;" horiz-adv-x="970" d="M59 676v123q0 31 7.5 60.5t23.5 52t46 37t77 14.5h727v-82h-338v-881h-184v881h-103q-92 0 -153.5 -52.5t-61.5 -152.5h-41z" />
<glyph unicode="&#x443;" horiz-adv-x="1052" d="M-20 942v41h174q92 0 152 -43t93 -121l234 -567l258 711h102l-399 -1096q-31 -84 -65 -138t-71 -85q-38 -31 -83 -42t-99 -12h-61v62q45 0 86 9t75 33t62 65q29 42 54 108l40 113l-327 798q-31 78 -89 117t-136 47z" />
<glyph unicode="&#x444;" horiz-adv-x="1355" d="M94 481q0 104 31 193.5t92.5 157t153.5 107.5t215 44v123q0 92 -25.5 148.5t-118.5 56.5h-30v41h174q53 0 89 -9.5t57.5 -37t29.5 -75.5t8 -124v-123q123 -4 215 -44t153.5 -107.5t92.5 -156.5t31 -194q0 -104 -31 -193t-92.5 -157t-153.5 -107.5t-215 -43.5v-369h-184 v369q-123 4 -215 43.5t-153.5 107.5t-92.5 157t-31 193zM289 481q0 -186 71.5 -299.5t227.5 -130.5v860q-156 -16 -227.5 -129.5t-71.5 -300.5zM768 51q156 16 227.5 130t71.5 300t-71.5 300t-227.5 130v-860z" />
<glyph unicode="&#x445;" horiz-adv-x="999" d="M16 922v41h174q70 0 128 -44t104 -120l127 -215l266 379h103l-328 -461l178 -297q86 -150 221 -164v-41h-184q-70 0 -128 44t-104 120l-127 215l-266 -379h-102l328 461l-179 297q-86 147 -211 164z" />
<glyph unicode="&#x446;" horiz-adv-x="1157" d="M2 922v41h174q53 0 89 -9.5t57.5 -37t29.5 -75.5t8 -124v-635h410v881h184v-881h82q31 0 51.5 -20.5t20.5 -51.5v-327h-82q-16 170 -65.5 243.5t-149.5 73.5h-635v717q0 92 -25.5 148.5t-117.5 56.5h-31z" />
<glyph unicode="&#x447;" horiz-adv-x="1091" d="M23 922v41h174q53 0 89 -9.5t57.5 -37t29.5 -75.5t8 -124v-82q0 -53 15.5 -91t42 -60.5t59 -33t67.5 -10.5q61 0 112.5 12.5t82.5 24.5v486h184v-963h-184v395q-31 -12 -83 -24.5t-122 -12.5q-66 0 -131.5 12.5t-118.5 44t-86 90t-33 150.5v62q0 92 -25.5 148.5 t-117.5 56.5h-20z" />
<glyph unicode="&#x448;" horiz-adv-x="1511" d="M2 922v41h174q53 0 89 -9.5t57.5 -37t29.5 -75.5t8 -124v-635h318v881h184v-881h318v881h184v-963h-1188v717q0 92 -25.5 148.5t-117.5 56.5h-31z" />
<glyph unicode="&#x449;" horiz-adv-x="1566" d="M2 922v41h174q53 0 89 -9.5t57.5 -37t29.5 -75.5t8 -124v-635h318v881h184v-881h318v881h184v-881h82q31 0 51.5 -20.5t20.5 -51.5v-327h-82q-16 170 -65.5 243.5t-149.5 73.5h-1045v717q0 92 -25.5 148.5t-117.5 56.5h-31z" />
<glyph unicode="&#x44a;" horiz-adv-x="1196" d="M72 614v277q0 31 20.5 51.5t50.5 20.5h420v-390h154q88 0 164.5 -13t133 -46t89.5 -88t33 -139t-33 -139.5t-89.5 -88t-133 -46t-164.5 -13.5h-338v881h-21q-109 0 -168 -63.5t-67 -203.5h-51zM563 92q23 -8 63 -14t70 -6q117 0 181.5 49t64.5 166t-64.5 166t-181.5 49 q-31 0 -70.5 -6.5t-62.5 -14.5v-389z" />
<glyph unicode="&#x44b;" horiz-adv-x="1409" d="M2 922v41h174q53 0 89 -9.5t57.5 -37t29.5 -75.5t8 -124v-144h154q80 0 152.5 -13t128 -46t87 -88t31.5 -139t-31.5 -139.5t-87 -88t-128 -46t-152.5 -13.5h-338v717q0 92 -25.5 148.5t-117.5 56.5h-31zM360 92q23 -8 63 -14t71 -6q100 0 162.5 49t62.5 166t-62.5 166 t-162.5 49q-31 0 -71 -6.5t-63 -14.5v-389zM1047 246v717h184v-717q0 -92 25.5 -148.5t117.5 -56.5h31v-41h-174q-53 0 -89 9t-57.5 37t-29.5 75t-8 125z" />
<glyph unicode="&#x44c;" horiz-adv-x="993" d="M2 922v41h174q53 0 89 -9.5t57.5 -37t29.5 -75.5t8 -124v-144h154q88 0 165 -13t133 -46t89 -88t33 -139t-33 -139.5t-89 -88t-133 -46t-165 -13.5h-338v717q0 92 -25.5 148.5t-117.5 56.5h-31zM360 92q23 -8 63 -14t71 -6q117 0 181 49t64 166t-64.5 166t-180.5 49 q-31 0 -71 -6.5t-63 -14.5v-389z" />
<glyph unicode="&#x44d;" horiz-adv-x="1001" d="M80 195l41 30q53 -78 120.5 -121t176.5 -43q70 0 124 28t91 77t57.5 116.5t24.5 147.5h-430v82h430q-4 80 -23.5 151.5t-56.5 124t-90 83t-127 30.5q-109 0 -183.5 -62.5t-82.5 -193.5h-41q0 57 1 99t5 73t15 53.5t30 40.5q39 39 113.5 55.5t183.5 16.5q115 0 199.5 -40 t140 -107.5t83 -158.5t27.5 -196q0 -104 -27.5 -195t-83 -159t-140.5 -107.5t-199 -39.5q-123 0 -216 49t-163 166z" />
<glyph unicode="&#x44e;" horiz-adv-x="1415" d="M2 922v41h174q53 0 89 -9.5t57.5 -37t29.5 -75.5t8 -124v-195h123q4 104 36 189.5t87.5 146t130 93t166.5 32.5q96 0 174 -37t132.5 -102.5t84 -158.5t29.5 -204t-29.5 -204t-84 -158.5t-132.5 -102t-174 -36.5q-92 0 -166.5 32.5t-130 93t-87.5 145.5t-36 189h-123v-440 h-184v717q0 92 -25.5 148.5t-117.5 56.5h-31zM678 481q0 -209 62.5 -314.5t162.5 -105.5t162.5 105.5t62.5 314.5t-62.5 314.5t-162.5 105.5t-162.5 -105.5t-62.5 -314.5z" />
<glyph unicode="&#x44f;" horiz-adv-x="1044" d="M35 0v41q35 4 63.5 19.5t53 39t43 51t34.5 54.5l123 215q-47 8 -89 28.5t-74.5 54.5t-52 80t-19.5 103q0 80 32.5 133t88 85t130 45.5t158.5 13.5h482v-41q-92 0 -118 -56.5t-26 -148.5v-717h-184v410h-160l-123 -246q-47 -92 -104 -138t-146 -46q-31 0 -60.5 6t-51.5 14 zM311 686q0 -109 63.5 -157t172.5 -48q31 0 70.5 6.5t62.5 14.5v368q-23 8 -62.5 14.5t-70.5 6.5q-109 0 -172.5 -48t-63.5 -157z" />
<glyph unicode="&#x451;" horiz-adv-x="999" d="M92 481q0 104 28 196q28 91 81 159t129 107q76 40 172 40q209 0 309 -117t100 -334l-4 -81h-620q0 -84 18 -156t54 -124t87 -81t117 -29q100 0 167 43t120 121l41 -30q-70 -117 -161 -166t-208 -49q-109 0 -188 39q-80 40 -134 108t-81 159t-27 195zM246 1188q0 39 26 65 q27 27 66 27t65 -27q27 -26 27 -65t-27 -66t-65 -26q-39 0 -66 26q-27 27 -26 66zM287 532h430q0 178 -53 274q-53 95 -162 95q-47 0 -86 -28t-68 -76q-29 -49 -45 -117t-16 -148zM594 1188q0 39 27 65q27 27 65 27q39 0 66 -27q26 -26 26 -65t-26 -66q-27 -27 -66 -26 q-39 0 -65 26q-27 27 -27 66z" />
<glyph unicode="&#x452;" d="M4 1024v82h143v123l103 123h82v-246h246v-82h-246v-246q39 39 106.5 71t159.5 32q66 0 128 -15.5t111.5 -57.5t79 -113.5t29.5 -182.5v-358q0 -115 -17.5 -199t-60.5 -137.5t-116.5 -79t-184.5 -25.5v41q100 0 147.5 106.5t47.5 293.5v358q0 76 -19.5 129t-51.5 86 t-71.5 47t-82.5 14q-61 0 -113.5 -32.5t-91.5 -75.5v-680h-185v1024h-143z" />
<glyph unicode="&#x453;" horiz-adv-x="890" d="M4 922v41h676q45 0 76 -15q31 -14 47 -37t23 -52q7 -30 8 -60v-123h-41q0 100 -62 152q-61 52 -153 53h-226v-881h-184v717q0 92 -26 148t-117 57h-21zM373 1047l82 266h194l-194 -266h-82z" />
<glyph unicode="&#x454;" horiz-adv-x="1001" d="M92 481q0 104 27.5 195.5t83 159t140.5 107.5t200 40q109 0 183.5 -16.5t113.5 -55.5q18 -18 29.5 -40.5t15.5 -53.5t5 -73t1 -99h-41q-8 131 -83 193.5t-183 62.5q-74 0 -127.5 -30.5t-90 -83t-56 -124t-23.5 -151.5h430v-82h-430q4 -80 24.5 -147.5t57.5 -116.5t90 -77 t125 -28q109 0 176 43t121 121l41 -30q-70 -117 -163 -166t-216 -49q-115 0 -200 39.5t-140.5 107.5t-83 159t-27.5 195z" />
<glyph unicode="&#x455;" horiz-adv-x="913" d="M100 276h41q16 -100 86 -157t201 -58q117 0 171 41t54 103q0 61 -46 103t-138 81l-123 51q-117 47 -181 112q-65 65 -65 165q0 66 26 114q26 49 71 83t106 52q61 17 135 17q117 0 193 -21q76 -22 114 -61q39 -39 46 -88q6 -49 6 -127h-41q-16 100 -85 158q-69 57 -192 57 q-100 0 -152 -41t-53 -102q0 -53 43 -98q43 -44 121 -76l123 -52q131 -53 199 -116q67 -64 67 -170q0 -66 -27 -115q-28 -49 -75 -83t-114 -51t-142 -17q-123 0 -201 21q-78 22 -116 60q-39 39 -46 89q-6 49 -6 126z" />
<glyph unicode="&#x456;" horiz-adv-x="503" d="M-6 922v41h184q53 0 89 -10q36 -9 58 -37t29 -75q8 -48 8 -124v-717h-184v717q0 92 -25 148q-26 56 -118 57h-41zM141 1217q0 43 26 67q26 25 69 25q47 0 80 -39q34 -39 34 -92q0 -43 -25 -68q-26 -25 -69 -25q-47 0 -81 39t-34 93z" />
<glyph unicode="&#x457;" horiz-adv-x="503" d="M-8 1237q0 43 25 68q26 25 69 24q47 0 81 -39t34 -92q0 -43 -26 -68t-69 -24q-47 0 -80 39q-34 39 -34 92zM-6 922v41h184q53 0 89 -10q36 -9 58 -37t29 -75q8 -48 8 -124v-717h-184v717q0 92 -25 148q-26 56 -118 57h-41zM307 1237q0 43 26 68t68 24q47 0 81 -39t34 -92 q0 -43 -26 -68t-68 -24q-47 0 -81 39t-34 92z" />
<glyph unicode="&#x458;" horiz-adv-x="503" d="M-16 -348q100 0 147 106t47 293v666q0 92 -25 148q-26 56 -118 57h-41v41h184q53 0 89 -10q36 -9 58 -37t29 -75q8 -48 8 -124v-666q0 -115 -17 -198q-17 -84 -60 -138q-43 -53 -117 -79t-184 -25v41zM141 1217q0 43 26 67q26 25 69 25q47 0 80 -39q34 -39 34 -92 q0 -43 -25 -68q-26 -25 -69 -25q-47 0 -81 39t-34 93z" />
<glyph unicode="&#x459;" horiz-adv-x="1581" d="M18 -2v51q49 0 97.5 25.5t86.5 97.5t60.5 203t22.5 342q0 45 -5.5 83t-20.5 65.5t-44 42t-76 14.5v41h809v-390h154q88 0 164.5 -13t133 -46t89.5 -88t33 -139t-33 -139.5t-89.5 -88t-133 -46t-164.5 -13.5h-338v881h-338v-164q0 -231 -26.5 -374.5t-69.5 -224.5 t-98.5 -109.5t-112.5 -28.5q-16 0 -50 6t-51 12zM948 92q23 -8 63 -14t70 -6q117 0 181.5 49t64.5 166t-64.5 166t-181.5 49q-31 0 -70.5 -6.5t-62.5 -14.5v-389z" />
<glyph unicode="&#x45a;" horiz-adv-x="1562" d="M2 922v41h174q53 0 89 -9.5t57.5 -37t29.5 -75.5t8 -124v-185h390v431h184v-431h153q88 0 165 -13t133.5 -44t89 -82t32.5 -127q0 -78 -32.5 -129t-89 -81.5t-133 -43t-165.5 -12.5h-337v451h-390v-451h-184v717q0 92 -25.5 148.5t-117.5 56.5h-31zM934 92 q23 -8 62.5 -14t70.5 -6q117 0 181.5 47t64.5 147t-64.5 147.5t-181.5 47.5q-31 0 -71 -6t-62 -15v-348z" />
<glyph unicode="&#x45b;" d="M4 1024v82h143v123l103 123h82v-246h246v-82h-246v-246q39 39 106.5 71t159.5 32q66 0 128 -15.5t111.5 -57.5t79 -113.5t29.5 -182.5v-512h-184v512q0 76 -19.5 129t-51.5 86t-71.5 47t-82.5 14q-61 0 -113.5 -32.5t-91.5 -75.5v-680h-185v1024h-143z" />
<glyph unicode="&#x45c;" horiz-adv-x="1017" d="M-2 922v41h184q53 0 89 -10q36 -9 58 -37t29 -75q8 -48 9 -124v-246l256 358q45 61 105 98q60 36 161 36h51v-52q-47 0 -96 -19t-88 -73l-226 -317l236 -297q53 -70 110 -113q56 -43 125 -53v-39q-16 -8 -44 -14t-58 -6q-78 0 -153 38q-75 39 -144 125l-235 297v-440 h-185v717q0 92 -25 148q-26 56 -118 57h-41zM428 997l82 267h195l-195 -267h-82z" />
<glyph unicode="&#x45e;" horiz-adv-x="1052" d="M-20 942v41h174q92 0 152 -43t93 -121l234 -567l258 711h102l-399 -1096q-31 -84 -65 -138t-71 -85q-38 -31 -83 -42t-99 -12h-61v62q45 0 86 9t75 33t62 65q29 42 54 108l40 113l-327 798q-31 78 -89 117t-136 47zM348 1212l41 31q39 -39 89 -60q50 -22 136 -22t137 22 q50 22 89 60l41 -31q-39 -70 -103 -116q-63 -47 -164 -47q-100 0 -163 47t-103 116z" />
<glyph unicode="&#x45f;" horiz-adv-x="1101" d="M2 922v41h174q53 0 89 -9.5t57.5 -37t29.5 -75.5t8 -124v-635h410v881h184v-963h-317l-31 -307h-82l-30 307h-318v717q0 92 -25.5 148.5t-117.5 56.5h-31z" />
<glyph unicode="&#x490;" horiz-adv-x="1095" d="M33 1311v41h727q123 0 189.5 56t66.5 179h41v-225q0 -39 -26.5 -65.5t-65.5 -26.5h-564v-1270h-184v1106q0 92 -25.5 148.5t-117.5 56.5h-41z" />
<glyph unicode="&#x491;" horiz-adv-x="884" d="M4 922v41h574q92 0 153.5 52t61.5 152h41v-204q0 -82 -82 -82h-400v-881h-184v717q0 92 -25.5 148.5t-117.5 56.5h-21z" />
<glyph unicode="&#x2000;" horiz-adv-x="850" />
<glyph unicode="&#x2001;" horiz-adv-x="1700" />
<glyph unicode="&#x2002;" horiz-adv-x="850" />
<glyph unicode="&#x2003;" horiz-adv-x="1700" />
<glyph unicode="&#x2004;" horiz-adv-x="566" />
<glyph unicode="&#x2005;" horiz-adv-x="425" />
<glyph unicode="&#x2006;" horiz-adv-x="283" />
<glyph unicode="&#x2007;" horiz-adv-x="283" />
<glyph unicode="&#x2008;" horiz-adv-x="212" />
<glyph unicode="&#x2009;" horiz-adv-x="340" />
<glyph unicode="&#x200a;" horiz-adv-x="94" />
<glyph unicode="&#x2010;" horiz-adv-x="792" d="M135 471v143h522v-143h-522z" />
<glyph unicode="&#x2011;" horiz-adv-x="792" d="M135 471v143h522v-143h-522z" />
<glyph unicode="&#x2012;" horiz-adv-x="792" d="M135 471v143h522v-143h-522z" />
<glyph unicode="&#x2013;" horiz-adv-x="1249" d="M143 471v123h963v-123h-963z" />
<glyph unicode="&#x2014;" horiz-adv-x="1785" d="M135 471v123h1516v-123h-1516z" />
<glyph unicode="&#x2018;" horiz-adv-x="462" d="M104 1014q0 131 58.5 224t167.5 155l20 -31q-78 -53 -121 -118.5t-43 -158.5l62 21q47 0 79.5 -33t32.5 -80q0 -53 -34.5 -88t-87.5 -35q-61 0 -97.5 37t-36.5 107z" />
<glyph unicode="&#x2019;" horiz-adv-x="466" d="M117 1270q0 53 34.5 88t88.5 35q61 0 97 -37t36 -107q0 -131 -58.5 -224t-167.5 -155l-20 31q78 53 121 118.5t43 158.5l-62 -21q-47 0 -79.5 33t-32.5 80z" />
<glyph unicode="&#x201a;" horiz-adv-x="485" d="M115 82q0 53 34.5 88t88.5 35q61 0 97 -37t36 -107q0 -131 -58.5 -224t-167.5 -154l-20 30q78 53 121 119t43 158l-62 -21q-47 0 -79.5 33t-32.5 80z" />
<glyph unicode="&#x201c;" horiz-adv-x="831" d="M104 1014q0 131 58.5 224t167.5 155l20 -31q-78 -53 -121 -118.5t-43 -158.5l62 21q47 0 79.5 -33t32.5 -80q0 -53 -34.5 -88t-87.5 -35q-61 0 -97.5 37t-36.5 107zM473 1014q0 131 58.5 224t166.5 155l21 -31q-78 -53 -121 -118.5t-43 -158.5l61 21q47 0 80 -33t33 -80 q0 -53 -35 -88t-88 -35q-61 0 -97 37t-36 107z" />
<glyph unicode="&#x201d;" horiz-adv-x="835" d="M117 1270q0 53 34.5 88t88.5 35q61 0 97 -37t36 -107q0 -131 -58.5 -224t-167.5 -155l-20 31q78 53 121 118.5t43 158.5l-62 -21q-47 0 -79.5 33t-32.5 80zM485 1270q0 53 35 88t88 35q61 0 97 -37t36 -107q0 -131 -58 -224t-167 -155l-20 31q78 53 120.5 118.5 t42.5 158.5l-61 -21q-47 0 -80 33t-33 80z" />
<glyph unicode="&#x201e;" horiz-adv-x="854" d="M115 82q0 53 34.5 88t88.5 35q61 0 97 -37t36 -107q0 -131 -58.5 -224t-167.5 -154l-20 30q78 53 121 119t43 158l-62 -21q-47 0 -79.5 33t-32.5 80zM483 82q0 53 35 88t88 35q61 0 97 -37t36 -107q0 -131 -58 -224t-167 -154l-20 30q78 53 120.5 119t42.5 158l-61 -21 q-47 0 -80 33t-33 80z" />
<glyph unicode="&#x2022;" horiz-adv-x="696" d="M102 676q0 109 68.5 177.5t177.5 68.5t177.5 -69t68.5 -177q0 -109 -68.5 -177.5t-177.5 -68.5t-177.5 68.5t-68.5 177.5z" />
<glyph unicode="&#x2026;" horiz-adv-x="1310" d="M115 84q0 45 32.5 78t77.5 33q47 0 79 -33t32 -78q0 -47 -33 -80t-78 -33t-77.5 33t-32.5 80zM545 84q0 45 32.5 78t77.5 33q47 0 79 -33t32 -78q0 -47 -33 -80t-78 -33t-77.5 33t-32.5 80zM975 84q0 45 32.5 78t77.5 33q47 0 79 -33t32 -78q0 -47 -33 -80t-78 -33 t-77.5 33t-32.5 80z" />
<glyph unicode="&#x202f;" horiz-adv-x="340" />
<glyph unicode="&#x2039;" horiz-adv-x="618" d="M70 461l358 399h82l-225 -399l225 -400h-82z" />
<glyph unicode="&#x203a;" horiz-adv-x="618" d="M109 61l225 400l-225 399h81l359 -399l-359 -400h-81z" />
<glyph unicode="&#x205f;" horiz-adv-x="425" />
<glyph unicode="&#x20ac;" horiz-adv-x="1490" d="M57 522l21 82h123v123h-113l21 82h106q23 125 80 231.5t139 185.5t184.5 123t217.5 44q170 0 292.5 -48.5t178.5 -115.5q39 -47 45 -131t6 -176h-41q-39 201 -144.5 295t-275.5 94q-90 0 -170 -25.5t-144.5 -85t-108.5 -156t-60 -235.5h411l-20 -82h-399v-123h389 l-21 -82h-360q14 -96 49 -184t94 -153.5t143 -104.5t197 -39q154 0 264.5 73.5t196.5 213.5l41 -31q-49 -96 -109.5 -160.5t-130 -104.5t-150.5 -56.5t-173 -16.5q-129 0 -235.5 42t-187.5 118t-132.5 179t-69.5 224h-154z" />
<glyph unicode="&#x2122;" horiz-adv-x="1812" d="M109 1137v92q0 47 22.5 85t91.5 38h559v-62h-268v-661h-137v661h-78q-70 0 -115 -39t-45 -114h-30zM852 629v723h145l230 -508l229 508h137v-492q0 -43 8.5 -85t24.5 -74.5t39 -52t51 -19.5v-31q-74 0 -124 18.5t-80.5 52t-43 82t-12.5 109.5v332l-252 -563h-30l-261 577 v-577h-61z" />
<glyph unicode="&#xe000;" horiz-adv-x="962" d="M0 0v963h963v-963h-963z" />
</font>
</defs>
</svg>
